SplineFontDB: 3.0
FontName: StickNoBills
FullName: Stick No Bills
FamilyName: Stick No Bills
OS2StyleName: "regular"
Weight: Regular
Copyright: Copyright (c) 2013 STICK NO BILLS, Copyright (c) 2015 mooniak\n
UComments: "2015-2-15: Created with FontForge (http://fontforge.org) The  Free Font Editor"
Version: 1.0
ItalicAngle: 0
UnderlinePosition: -102
UnderlineWidth: 51
Ascent: 819
Descent: 205
InvalidEm: 0
UFOAscent: 819
UFODescent: -205
LayerCount: 2
Layer: 0 0 "Back" 1
Layer: 1 0 "Fore" 0
PreferredKerning: 4
FSType: 0
OS2Version: 0
OS2_WeightWidthSlopeOnly: 0
OS2_UseTypoMetrics: 0
CreationTime: 1429518268
ModificationTime: 1429713871
PfmFamily: 16
TTFWeight: 400
TTFWidth: 5
LineGap: 94
VLineGap: 0
OS2TypoAscent: 819
OS2TypoAOffset: 0
OS2TypoDescent: -205
OS2TypoDOffset: 0
OS2TypoLinegap: 94
OS2WinAscent: 918
OS2WinAOffset: 0
OS2WinDescent: 205
OS2WinDOffset: 0
HheadAscent: 918
HheadAOffset: 0
HheadDescent: -205
HheadDOffset: 0
OS2CapHeight: 0
OS2XHeight: 0
OS2Vendor: 'PfEd'
OS2UnicodeRanges: 00000002.00000000.00000000.00000000
Lookup: 258 0 0 "'kern' Horizontal Kerning lookup 0" { "'kern' Horizontal Kerning lookup 0-1" [153,15,0] "'kern' Horizontal Kerning lookup 0-2" [153,15,0] } ['kern' ('DFLT' <'dflt' > 'hani' <'dflt' > 'latn' <'dflt' > ) ]
MarkAttachClasses: 1
DEI: 91125
KernClass2: 6 6 "'kern' Horizontal Kerning lookup 0-1"
 1 A
 7 T Y P F
 9 f r v w y
 1 L
 3 W V
 7 W V T Y
 12 period comma
 17 a e s o q d c g u
 1 A
 5 w v t
 0 {} 0 {} 0 {} 0 {} 0 {} 0 {} 0 {} -70 {} 61 {} -23 {} 0 {} -68 {} 0 {} 16 {} -80 {} -30 {} -100 {} -23 {} 0 {} 0 {} -41 {} 0 {} 0 {} 0 {} 0 {} -82 {} 0 {} 84 {} 0 {} -77 {} 0 {} 0 {} -109 {} -55 {} -130 {} 0 {}

StartChar: A
Encoding: 65 65 0
GlifName: A_
Width: 516
VWidth: 0
GlyphClass: 2
Flags: HW
HStem: 0 21<26 164 26 26 353 353 353 490> 0 21<26 164 26 26 353 353 353 490> 679 20<200 339 339 339> 679 20<200 339 339 339>
VStem: 155 15<582 582>
LayerCount: 2
Back
Fore
SplineSet
257.622070312 582 m 257x88
 272.622070312 582 l 257
 283.250976562 302 l 257
 164 0 l 257
 26 0 l 257
 257.622070312 582 l 257x88
323.252929688 699 m 257xa8
 462.252929688 699 l 257
 490 0 l 257
 353 0 l 257
 347.98828125 85 l 257
 253.98828125 85 l 257
 308.321289062 223 l 257
 344.321289062 223 l 257
 323.252929688 699 l 257xa8
EndSplineSet
EndChar

StartChar: AE
Encoding: 198 198 1
GlifName: A_E_
Width: 727
VWidth: 0
GlyphClass: 2
Flags: HW
HStem: 0 141<478 701 478 701> 277 141<478 607 478 607> 560 140<320 337 320 320 478 478 478 483 483 701>
VStem: 337 141<141 148 148 148 268 277 418 560>
LayerCount: 2
Back
Fore
SplineSet
725.862304688 141 m 257
 701 0 l 257
 337 0 l 257
 363.096679688 148 l 257
 298.096679688 148 l 257
 348.255859375 268 l 257
 384.255859375 268 l 257
 435.743164062 560 l 257
 418.743164062 560 l 257
 182 0 l 257
 26 0 l 257
 329.428710938 700 l 257
 824.428710938 700 l 257
 799.743164062 560 l 257
 581.743164062 560 l 257
 576.743164062 560 l 257
 551.705078125 418 l 257
 680.705078125 418 l 257
 655.842773438 277 l 257
 526.842773438 277 l 257
 502.862304688 141 l 257
 725.862304688 141 l 257
EndSplineSet
EndChar

StartChar: Aring
Encoding: 197 197 6
GlifName: A_ring
Width: 516
VWidth: 0
GlyphClass: 2
Flags: HW
HStem: 0 21<26 164 26 26 353 490 353 353> 669 64 679 20<339 339 339 339> 797 64<260 278>
VStem: 155 15<582 582> 173 64<756 774 756 791.5> 301 64<756 774>
LayerCount: 2
Back
Fore
SplineSet
307.890625 765 m 256
 317.235351562 818 367.817382812 861 420.817382812 861 c 256
 473.817382812 861 509.235351562 818 499.890625 765 c 256
 495.305664062 739 481.25 716 462.252929688 699 c 257
 462.252929688 699 l 257
 490 0 l 257
 353 0 l 257
 347.98828125 85 l 257
 253.98828125 85 l 257
 308.321289062 223 l 257
 344.321289062 223 l 257
 323.076171875 698 l 257
 309.07421875 715 303.305664062 739 307.890625 765 c 256
371.890625 765 m 256
 368.715820312 747 380.248046875 733 398.248046875 733 c 256
 416.248046875 733 432.715820312 747 435.890625 765 c 256
 439.064453125 783 427.532226562 797 409.532226562 797 c 256
 391.532226562 797 375.064453125 783 371.890625 765 c 256
257.622070312 582 m 257
 272.622070312 582 l 257
 283.250976562 302 l 257
 164 0 l 257
 26 0 l 257
 257.622070312 582 l 257
EndSplineSet
EndChar

StartChar: B
Encoding: 66 66 8
GlifName: B_
Width: 484
VWidth: 0
GlyphClass: 2
Flags: HW
HStem: 0 122<26 264.5 221 264.5> 289 122<221 251 221 266> 577 123<26 221>
VStem: 26 141<0 700 0 700> 324 134<197 201 197 216>
LayerCount: 2
Back
Fore
SplineSet
242.51171875 122 m 257
 329.51171875 122 355.5625 179 360.147460938 205 c 256
 364.026367188 227 361.958984375 289 271.958984375 289 c 257
 293.470703125 411 l 257
 353.470703125 411 400.641601562 446 409.634765625 497 c 256
 418.451171875 547 381.564453125 576 322.740234375 577 c 257
 344.428710938 700 l 257
 352.60546875 701 360.60546875 701 368.60546875 701 c 256
 520.60546875 701 555.211914062 574 544.631835938 514 c 258
 544.456054688 513 l 258
 527.233398438 421 486.651367188 378 447.067382812 352 c 257
 479.77734375 322 508.252929688 285 493.44140625 201 c 256
 493.088867188 199 492.913085938 198 492.736328125 197 c 256
 472.1640625 86 365.647460938 -2 248.647460938 -2 c 256
 239.647460938 -2 229.823242188 -1 221 0 c 257
 242.51171875 122 l 257
149.428710938 700 m 257
 290.428710938 700 l 257
 167 0 l 257
 26 0 l 257
 149.428710938 700 l 257
EndSplineSet
EndChar

StartChar: C
Encoding: 67 67 9
GlifName: C_
Width: 494
VWidth: 0
GlyphClass: 2
Flags: HW
HStem: 685 20<157.5 229 283 329>
VStem: 32 141<181 518> 330 138<129 215 129 215>
LayerCount: 2
Back
Fore
SplineSet
382.448242188 564 m 257
 407.310546875 705 l 257
 499.310546875 705 575.912109375 612 558.984375 516 c 257
 414.63671875 480 l 257
 417.282226562 495 l 258
 419.75 509 421.690429688 520 418.805664062 532 c 256
 412.861328125 555 382.448242188 564 382.448242188 564 c 257
306.98046875 136 m 257
 306.98046875 136 340.21484375 143 354.270507812 166 c 256
 361.385742188 178 363.326171875 189 365.793945312 203 c 258
 367.91015625 215 l 257
 500.091796875 182 l 257
 481.400390625 76 374.118164062 -5 282.118164062 -5 c 257
 306.98046875 136 l 257
353.310546875 705 m 257
 328.448242188 564 l 257
 282.272460938 563 265.21875 523 264.336914062 518 c 257
 204.915039062 181 l 257
 204.033203125 176 206.98046875 136 252.98046875 136 c 257
 228.118164062 -5 l 257
 85.1181640625 -5 53.3359375 121 63.9150390625 181 c 257
 123.336914062 518 l 257
 133.916992188 578 210.310546875 705 353.310546875 705 c 257
EndSplineSet
EndChar

StartChar: D
Encoding: 68 68 11
GlifName: D_
Width: 452
VWidth: 0
GlyphClass: 2
Flags: HW
HStem: 0 21<32 32 32 173 227 257> 0 21<32 32 32 173 227 257> 680 20<32 173 173 173 227 298.5>
VStem: 32 141<0 700 0 700> 283 141<197 503>
LayerCount: 2
Back
Fore
SplineSet
227 0 m 257
 251.862304688 141 l 257
 257.862304688 141 308.272460938 149 317.736328125 197 c 258
 371.692382812 503 l 257
 372.57421875 508 373.390625 558 325.56640625 559 c 257
 350.428710938 700 l 257
 493.428710938 700 523.80078125 566 512.692382812 503 c 257
 458.736328125 197 l 257
 432.81640625 50 287 0 227 0 c 257
32 0 m 257
 155.428710938 700 l 257
 296.428710938 700 l 257
 173 0 l 257
 32 0 l 257
EndSplineSet
EndChar

StartChar: E
Encoding: 69 69 12
GlifName: E_
Width: 422
VWidth: 0
GlyphClass: 2
Flags: HW
HStem: 0 141<173 396 173 396> 277 141<173 302 173 302> 560 140<173 396 173 173>
VStem: 32 364<0 141 560 700> 32 141<141 277 418 560>
LayerCount: 2
Back
Fore
SplineSet
420.862304688 141 m 257
 396 0 l 257
 32 0 l 257
 155.428710938 700 l 257
 519.428710938 700 l 257
 494.743164062 560 l 257
 271.743164062 560 l 257
 246.705078125 418 l 257
 375.705078125 418 l 257
 350.842773438 277 l 257
 221.842773438 277 l 257
 197.862304688 141 l 257
 420.862304688 141 l 257
EndSplineSet
EndChar

StartChar: EURO
Encoding: 256 8364 13
GlifName: E_U_R_O_
Width: 567
VWidth: 0
GlyphClass: 2
Flags: HW
HStem: 258 59<50 99 50 99 236 408> 376 60<236 408> 558 140<278 278 278 338>
VStem: 99 137<182 202 202 258 178.5 258 317 376 436 488> 381 136<182 186 171 199 514 518>
LayerCount: 2
Back
Fore
SplineSet
401.076171875 698 m 257
 376.390625 558 l 257
 334.745117188 543 329.805664062 532 322.047851562 488 c 258
 312.87890625 436 l 257
 484.87890625 436 l 257
 474.298828125 376 l 257
 302.298828125 376 l 257
 291.895507812 317 l 257
 463.895507812 317 l 257
 453.4921875 258 l 257
 281.4921875 258 l 257
 271.618164062 202 l 258
 263.331054688 155 281.154296875 154 302.862304688 141 c 257
 278.352539062 2 l 257
 198.41015625 8 175.934570312 45 149.869140625 90 c 256
 133.806640625 118 127.272460938 149 131.091796875 182 c 258
 144.4921875 258 l 257
 95.4921875 258 l 257
 105.895507812 317 l 257
 154.895507812 317 l 257
 165.475585938 377 l 257
 116.475585938 377 l 257
 126.87890625 436 l 257
 175.87890625 436 l 257
 186.458007812 496 l 258
 194.216796875 540 207.564453125 576 242.088867188 613 c 256
 289.43359375 666 339.723632812 696 401.076171875 698 c 257
461.076171875 698 m 257
 509.900390625 697 545.020507812 675 576.143554688 636 c 256
 606.443359375 598 612.921875 544 607.631835938 514 c 257
 461.639648438 463 l 257
 469.33984375 501 l 258
 475.334960938 535 462.803710938 549 436.390625 558 c 257
 461.076171875 698 l 257
338.352539062 2 m 257
 363.038085938 142 l 257
 392.625 151 410.09375 165 416.088867188 199 c 258
 421.7890625 237 l 257
 549.796875 186 l 257
 544.506835938 156 518.985351562 102 475.28515625 64 c 256
 430.408203125 25 387.529296875 3 338.352539062 2 c 257
EndSplineSet
EndChar

StartChar: Eth
Encoding: 208 208 18
GlifName: E_th
Width: 501
VWidth: 0
GlyphClass: 2
Flags: HW
HStem: 0 21<83 224 83 83 278 308> 292 128<26 83 26 83 224 280> 680 20<83 224 224 224 278 349.5>
VStem: 83 141<0 292 0 292 420 700> 334 141<197 503>
LayerCount: 2
Back
Fore
SplineSet
278 0 m 257
 302.862304688 141 l 257
 308.862304688 141 359.272460938 149 368.736328125 197 c 258
 422.692382812 503 l 258
 423.57421875 508 424.390625 558 376.56640625 559 c 257
 401.428710938 700 l 257
 544.428710938 700 574.80078125 566 563.692382812 503 c 258
 509.736328125 197 l 258
 483.81640625 50 338 0 278 0 c 257
298.057617188 420 m 257
 354.057617188 420 l 257
 331.487304688 292 l 257
 275.487304688 292 l 257
 224 0 l 257
 83 0 l 257
 134.487304688 292 l 257
 77.4873046875 292 l 257
 100.057617188 420 l 257
 157.057617188 420 l 257
 206.428710938 700 l 257
 347.428710938 700 l 257
 298.057617188 420 l 257
EndSplineSet
EndChar

StartChar: F
Encoding: 70 70 19
GlifName: F_
Width: 422
VWidth: 0
GlyphClass: 2
Flags: HW
HStem: 1 21<32 173 32 32> 1 21<32 173 32 32> 277 141<173 302 173 302> 560 140<173 396 173 173>
VStem: 32 141<1 277 418 560>
LayerCount: 2
Back
Fore
SplineSet
375.705078125 418 m 257
 350.842773438 277 l 257
 221.842773438 277 l 257
 173.176757812 1 l 257
 32.1767578125 1 l 257
 155.428710938 700 l 257
 519.428710938 700 l 257
 494.743164062 560 l 257
 271.743164062 560 l 257
 246.705078125 418 l 257
 375.705078125 418 l 257
EndSplineSet
EndChar

StartChar: G
Encoding: 71 71 20
GlifName: G_
Width: 493
VWidth: 0
GlyphClass: 2
Flags: HW
HStem: -5 141<219.5 222 219.5 222 219.5 276> 685 20<156 222 276 322.5>
VStem: 26 141<192 508 192 524 192 524> 276 185<135.5 136 136 136 223 353 135.5 353> 319 142<190 223 223 223>
LayerCount: 2
Back
Fore
SplineSet
375.448242188 564 m 257
 400.310546875 705 l 257
 493.310546875 705 568.912109375 612 551.984375 516 c 257
 404.9921875 465 l 257
 410.282226562 495 l 258
 412.75 509 414.690429688 520 411.805664062 532 c 256
 405.861328125 555 375.448242188 564 375.448242188 564 c 257
523.243164062 353 m 257
 492.033203125 176 l 258
 477.750976562 95 357.294921875 -4 275.118164062 -5 c 257
 299.98046875 136 l 257
 305.98046875 136 346.331054688 155 352.501953125 190 c 258
 358.321289062 223 l 257
 315.321289062 223 l 257
 338.243164062 353 l 257
 523.243164062 353 l 257
221.118164062 -5 m 257
 161.118164062 -5 34.4638671875 48 59.8544921875 192 c 257
 118.395507812 524 l 257
 137.856445312 589 214.310546875 705 346.310546875 705 c 257
 321.448242188 564 l 257
 275.272460938 563 257.456054688 513 256.57421875 508 c 257
 200.854492188 192 l 258
 193.744140625 146 240.98046875 136 245.98046875 136 c 257
 221.118164062 -5 l 257
EndSplineSet
EndChar

StartChar: H
Encoding: 72 72 21
GlifName: H_
Width: 458
VWidth: 0
GlyphClass: 2
Flags: HW
HStem: 0 21<32 173 32 32 285 285 285 426> 0 21<32 173 32 32 285 285 285 426> 680 20<32 173 173 173 285 426 426 426>
VStem: 32 170<283 421 283 700> 32 141<0 283 0 421 421 700> 256 170<283 421 421 421> 285 141<0 283 283 283 421 700 0 700>
LayerCount: 2
Back
Fore
SplineSet
276.233398438 421 m 257
 251.900390625 283 l 257
 222.900390625 283 l 257
 173 0 l 257
 32 0 l 257
 155.428710938 700 l 257
 296.428710938 700 l 257
 247.233398438 421 l 257
 276.233398438 421 l 257
408.428710938 700 m 257
 549.428710938 700 l 257
 426 0 l 257
 285 0 l 257
 334.900390625 283 l 257
 305.900390625 283 l 257
 330.233398438 421 l 257
 359.233398438 421 l 257
 408.428710938 700 l 257
EndSplineSet
EndChar

StartChar: HKD
Encoding: 257 22291 22
GlifName: H_K_D_
Width: 843
VWidth: 0
GlyphClass: 2
Flags: HW
HStem: 488 210<50 92 50 92 50 126 126 169 50 198 198 241 284 284 284 325> 573 41<92 101 92 101 92 117 117 126>
VStem: 50 51<573 614 573 698> 50 42<488 573 488 614 614 698> 117 52<573 614 614 614> 126 43<488 573 573 573 614 698 488 698> 198 43<488 698 488 698> 360 134 464 71 590 71 652 141
LayerCount: 2
Back
Fore
SplineSet
665.467773438 428 m 257
 689.705078125 418 713.764648438 407 734.47265625 394 c 256
 789.125 358 847.837890625 311 829.852539062 209 c 256
 814.51171875 122 743.758789062 44 663.116210938 12 c 257
 652.712890625 -47 l 257
 581.712890625 -47 l 257
 589.470703125 -3 l 256
 612.393554688 127 l 257
 636.922851562 130 678.44921875 150 687.793945312 203 c 256
 694.495117188 241 671.374023438 263 639.37109375 280 c 257
 665.467773438 428 l 257
667.245117188 750 m 257
 635.153320312 568 l 257
 613.095703125 562 588.6875 537 584.456054688 513 c 256
 579.6953125 486 593.697265625 469 615.052734375 454 c 257
 588.250976562 302 l 257
 570.485351562 309 553.719726562 316 539.954101562 323 c 256
 474.94921875 357 431.059570312 403 449.57421875 508 c 256
 465.620117188 599 527.96484375 652 583.725585938 679 c 257
 596.245117188 750 l 257
 667.245117188 750 l 257
781.254882812 682 m 257
 838.436523438 649 862.26953125 580 862.508789062 553 c 257
 724.926757812 510 l 257
 728.213867188 557 690.153320312 568 690.153320312 568 c 257
 722.245117188 750 l 257
 793.245117188 750 l 257
 781.254882812 682 l 257
526.712890625 -47 m 257
 455.712890625 -47 l 257
 466.291992188 13 l 257
 402.934570312 45 373.454101562 116 379.859375 158 c 257
 514.793945312 203 l 257
 506.919921875 147 557.393554688 127 557.393554688 127 c 257
 526.712890625 -47 l 257
209.264648438 614 m 257
 202.03515625 573 l 257
 193.03515625 573 l 257
 178.047851562 488 l 257
 136.047851562 488 l 257
 173.076171875 698 l 257
 215.076171875 698 l 257
 200.264648438 614 l 257
 209.264648438 614 l 257
406.076171875 698 m 257
 448.076171875 698 l 257
 406.735351562 611 l 257
 412.047851562 488 l 257
 370.047851562 488 l 257
 364.735351562 611 l 257
 406.076171875 698 l 257
321.076171875 698 m 257
 364.076171875 698 l 257
 327.047851562 488 l 257
 284.047851562 488 l 257
 321.076171875 698 l 257
249.076171875 698 m 257
 292.076171875 698 l 257
 255.047851562 488 l 257
 212.047851562 488 l 257
 227.03515625 573 l 257
 218.03515625 573 l 257
 225.264648438 614 l 257
 234.264648438 614 l 257
 249.076171875 698 l 257
EndSplineSet
EndChar

StartChar: I
Encoding: 73 73 23
GlifName: I_
Width: 209
VWidth: 0
GlyphClass: 2
Flags: HW
HStem: 0 21<34 175 34 34> 0 21<34 175 34 34> 680 20<34 175 175 175>
VStem: 34 141<0 700 0 700>
LayerCount: 2
Back
Fore
SplineSet
157.428710938 700 m 257xb0
 298.428710938 700 l 257
 175 0 l 257
 34 0 l 257
 157.428710938 700 l 257xb0
EndSplineSet
EndChar

StartChar: J
Encoding: 74 74 28
GlifName: J_
Width: 495
VWidth: 0
GlyphClass: 2
Flags: HW
HStem: -5 142<210.5 213 210.5 213 267 269.5 210.5 297> 680 20<323 463 463 463>
VStem: 26 141<193 242 193 242> 323 140<193 700>
LayerCount: 2
Back
Fore
SplineSet
212.118164062 -5 m 257
 152.118164062 -5 35.521484375 54 60.03125 193 c 257
 68.6708984375 242 l 257
 209.670898438 242 l 257
 201.03125 193 l 258
 193.919921875 147 232.157226562 137 237.157226562 137 c 257
 212.118164062 -5 l 257
266.118164062 -5 m 257
 291.157226562 137 l 257
 296.157226562 137 347.919921875 147 357.03125 193 c 258
 446.428710938 700 l 257
 586.428710938 700 l 257
 497.03125 193 l 257
 471.639648438 49 326.118164062 -5 266.118164062 -5 c 257
EndSplineSet
EndChar

StartChar: K
Encoding: 75 75 29
GlifName: K_
Width: 475
VWidth: 0
GlyphClass: 2
Flags: HW
HStem: 0 21<26 167 26 26 319 457 319 319> 0 21<26 167 26 26 319 457 319 319> 680 20<26 167 167 167 314 453 453 453>
VStem: 26 141<0 700 0 700>
LayerCount: 2
Back
Fore
SplineSet
437.428710938 700 m 257
 576.428710938 700 l 257
 407.127929688 341 l 257
 457 0 l 257
 319 0 l 257
 267.127929688 341 l 257
 437.428710938 700 l 257
149.428710938 700 m 257
 290.428710938 700 l 257
 167 0 l 257
 26 0 l 257
 149.428710938 700 l 257
EndSplineSet
EndChar

StartChar: L
Encoding: 76 76 30
GlifName: L_
Width: 428
VWidth: 0
GlyphClass: 2
Flags: HW
HStem: 0 139<167 402 167 402> 680 20<26 167 167 167>
VStem: 26 141<139 700 139 700 139 700>
LayerCount: 2
Back
Fore
SplineSet
426.509765625 139 m 257
 402 0 l 257
 26 0 l 257
 149.428710938 700 l 257
 290.428710938 700 l 257
 191.509765625 139 l 257
 426.509765625 139 l 257
EndSplineSet
EndChar

StartChar: Lslash
Encoding: 258 321 31
GlifName: L_slash
Width: 530
VWidth: 0
GlyphClass: 2
Flags: HW
HStem: 0 139<270 505 270 505> 680 20<129 270 270 270>
VStem: 129 141<139 233 233 233 492 700>
LayerCount: 2
Back
Fore
SplineSet
429 540 m 257
 489 452 l 257
 330.48046875 343 l 257
 294.509765625 139 l 257
 529.509765625 139 l 257
 505 0 l 257
 129 0 l 257
 170.083984375 233 l 257
 134.852539062 209 l 257
 79.2509765625 302 l 257
 196.356445312 382 l 257
 252.428710938 700 l 257
 393.428710938 700 l 257
 356.752929688 492 l 257
 429 540 l 257
EndSplineSet
EndChar

StartChar: M
Encoding: 77 77 32
GlifName: M_
Width: 676
VWidth: 0
GlyphClass: 2
Flags: HW
HStem: 0 21<32 32 32 173 285 285 285 382 503 503 503 644> 0 21<32 32 32 173 285 285 285 382 503 503 503 644> 680 20<32 142 142 142 503 644 644 644>
VStem: 32 141<0 127 0 444> 503 141<0 700 0 700>
LayerCount: 2
Back
Fore
SplineSet
32 0 m 257
 110.2890625 444 l 257
 119.2890625 444 l 257
 195.393554688 127 l 257
 173 0 l 257
 32 0 l 257
155.428710938 700 m 257
 265.428710938 700 l 257
 374.7890625 237 l 257
 522.931640625 476 l 257
 532.931640625 476 l 257
 475.625 151 l 257
 382 0 l 257
 285 0 l 257
 139.20703125 608 l 257
 155.428710938 700 l 257
626.428710938 700 m 257
 767.428710938 700 l 257
 644 0 l 257
 503 0 l 257
 626.428710938 700 l 257
EndSplineSet
EndChar

StartChar: N
Encoding: 78 78 33
GlifName: N_
Width: 509
VWidth: 0
GlyphClass: 2
Flags: HW
HStem: 0 21<32 32 32 173 410 410 410 477> 0 21<32 32 32 173 410 410 410 477> 680 20<32 147 147 147 336 477 477 477>
VStem: 32 141<0 278 0 492> 336 141<498 700>
LayerCount: 2
Back
Fore
SplineSet
32 0 m 257
 118.752929688 492 l 257
 126.752929688 492 l 257
 222.018554688 278 l 257
 173 0 l 257
 32 0 l 257
600.428710938 700 m 257
 527.077148438 284 l 257
 519.077148438 284 l 257
 423.810546875 498 l 257
 459.428710938 700 l 257
 600.428710938 700 l 257
155.428710938 700 m 257
 270.428710938 700 l 257
 506.623046875 168 l 257
 477 0 l 257
 410 0 l 257
 139.20703125 608 l 257
 155.428710938 700 l 257
EndSplineSet
EndChar

StartChar: O
Encoding: 79 79 35
GlifName: O_
Width: 508
VWidth: 0
GlyphClass: 2
Flags: HW
HStem: -5 142<223.5 226 223.5 226 281 283.5 223.5 311> 564 141<161 227 161 281>
VStem: 30 141<195 508> 337 141<195 508 508 510.5>
LayerCount: 2
Back
Fore
SplineSet
225.118164062 -5 m 257
 165.118164062 -5 38.9931640625 51 64.3837890625 195 c 258
 122.395507812 524 l 258
 132.974609375 584 219.310546875 705 351.310546875 705 c 257
 326.448242188 564 l 257
 280.272460938 563 261.456054688 513 260.57421875 508 c 258
 205.383789062 195 l 258
 197.272460938 149 245.157226562 137 250.157226562 137 c 257
 225.118164062 -5 l 257
280.118164062 -5 m 257
 305.157226562 137 l 257
 310.157226562 137 362.272460938 149 371.383789062 195 c 258
 426.57421875 508 l 258
 427.456054688 513 426.272460938 563 380.448242188 564 c 257
 405.310546875 705 l 257
 536.310546875 705 580.798828125 583 570.395507812 524 c 258
 512.383789062 195 l 258
 486.993164062 51 340.118164062 -5 280.118164062 -5 c 257
EndSplineSet
EndChar

StartChar: OE
Encoding: 259 338 36
GlifName: O_E_
Width: 724
VWidth: 0
GlyphClass: 2
Flags: HW
HStem: -5 142 564 141
VStem: 26 141<200 503> 333 141
LayerCount: 2
Back
Fore
SplineSet
722.862304688 141 m 257
 698 0 l 257
 277 0 l 257
 302.038085938 142 l 257
 359.038085938 142 l 257
 432.56640625 559 l 257
 375.56640625 559 l 257
 400.428710938 700 l 257
 821.428710938 700 l 257
 796.743164062 560 l 257
 573.743164062 560 l 257
 548.705078125 418 l 257
 677.705078125 418 l 257
 652.842773438 277 l 257
 523.842773438 277 l 257
 499.862304688 141 l 257
 722.862304688 141 l 257
222 0 m 257
 162 0 35.8740234375 56 61.265625 200 c 258
 117.513671875 519 l 258
 128.09375 579 214.428710938 700 346.428710938 700 c 257
 321.56640625 559 l 257
 275.390625 558 256.57421875 508 255.692382812 503 c 258
 202.265625 200 l 258
 194.154296875 154 242.038085938 142 247.038085938 142 c 257
 222 0 l 257
EndSplineSet
EndChar

StartChar: Oslash
Encoding: 216 216 41
GlifName: O_slash
Width: 662
VWidth: 0
GlyphClass: 2
Flags: HW
HStem: -5 142<301.5 304 301.5 304 359 361.5 301.5 389> 564 141<239 305 239 359>
VStem: 108 141<356 508> 415 141<195 347 347 347>
LayerCount: 2
Back
Fore
SplineSet
700.0234375 658 m 257
 762.506835938 570 l 257
 639.579101562 474 l 257
 590.383789062 195 l 258
 564.993164062 51 418.118164062 -5 358.118164062 -5 c 257
 383.157226562 137 l 257
 388.157226562 137 440.272460938 149 449.383789062 195 c 258
 476.185546875 347 l 257
 283.736328125 197 l 257
 283.383789062 195 l 258
 275.272460938 149 323.157226562 137 328.157226562 137 c 257
 303.118164062 -5 l 257
 260.118164062 -5 182.231445312 24 151.575195312 94 c 257
 85.58203125 43 l 257
 23.0986328125 131 l 257
 148.202148438 228 l 257
 200.395507812 524 l 258
 210.974609375 584 297.310546875 705 429.310546875 705 c 257
 404.448242188 564 l 257
 358.272460938 563 339.456054688 513 338.57421875 508 c 258
 311.772460938 356 l 257
 504.044921875 505 l 257
 504.57421875 508 l 258
 505.456054688 513 504.272460938 563 458.448242188 564 c 257
 483.310546875 705 l 257
 565.310546875 705 613.0234375 658 635.030273438 607 c 257
 700.0234375 658 l 257
EndSplineSet
EndChar

StartChar: P
Encoding: 80 80 43
GlifName: P_
Width: 474
VWidth: 0
GlyphClass: 2
Flags: HW
HStem: 0 21<26 167 26 26> 0 21<26 167 26 26> 318 139<221 254 254 257.5 221 299.5> 561 139<221 254 26 221>
VStem: 26 141<0 700 0 700> 305 143<483 533.5>
LayerCount: 2
Back
Fore
SplineSet
301.581054688 457 m 257
 334.581054688 457 l 258
 341.581054688 457 385.7578125 458 394.57421875 508 c 256
 403.56640625 559 361.919921875 561 352.919921875 561 c 258
 319.919921875 561 l 257
 344.428710938 700 l 257
 525.428710938 700 558.380859375 626 538.279296875 512 c 256
 513.064453125 369 434.072265625 318 277.072265625 318 c 257
 301.581054688 457 l 257
149.428710938 700 m 257
 290.428710938 700 l 257
 167 0 l 257
 26 0 l 257
 149.428710938 700 l 257
EndSplineSet
EndChar

StartChar: Percent_sign
Encoding: 37 37 44
GlifName: P_ercent_sign
Width: 629
VWidth: 0
GlyphClass: 2
Flags: HW
HStem: 9 216<465 525> 467 216<104 164>
VStem: 26 216<545 605> 387 216<87 147>
LayerCount: 2
Back
Fore
SplineSet
155.944335938 -23 m 257
 461.25 716 l 257
 587.25 716 l 257
 282.944335938 -23 l 257
 155.944335938 -23 l 257
127.387695312 575 m 256
 137.967773438 635 194.431640625 683 254.431640625 683 c 256
 314.431640625 683 353.967773438 635 343.387695312 575 c 256
 332.80859375 515 276.344726562 467 216.344726562 467 c 256
 156.344726562 467 116.80859375 515 127.387695312 575 c 256
407.629882812 117 m 256
 418.209960938 177 474.673828125 225 534.673828125 225 c 256
 594.673828125 225 634.209960938 177 623.629882812 117 c 256
 613.05078125 57 556.586914062 9 496.586914062 9 c 256
 436.586914062 9 397.05078125 57 407.629882812 117 c 256
EndSplineSet
EndChar

StartChar: Q
Encoding: 81 81 45
GlifName: Q_
Width: 500
VWidth: 0
GlyphClass: 2
Flags: HW
HStem: 564 141<157 223 157 277>
VStem: 26 141<195 508> 333 141<195 508 508 510.5>
LayerCount: 2
Back
Fore
SplineSet
221.118164062 -5 m 257
 161.118164062 -5 34.9931640625 51 60.3837890625 195 c 258
 118.395507812 524 l 258
 128.974609375 584 215.310546875 705 347.310546875 705 c 257
 322.448242188 564 l 257
 276.272460938 563 257.456054688 513 256.57421875 508 c 258
 201.383789062 195 l 258
 193.272460938 149 241.157226562 137 246.157226562 137 c 257
 221.118164062 -5 l 257
413.287109375 47 m 257
 454.357421875 -32 l 257
 329.1328125 -107 l 257
 276.118164062 -5 l 257
 301.157226562 137 l 257
 306.157226562 137 358.272460938 149 367.383789062 195 c 258
 422.57421875 508 l 258
 423.456054688 513 422.272460938 563 376.448242188 564 c 257
 401.310546875 705 l 257
 532.310546875 705 576.798828125 583 566.395507812 524 c 258
 508.383789062 195 l 258
 496.393554688 127 457.9296875 79 413.287109375 47 c 257
EndSplineSet
EndChar

StartChar: R
Encoding: 82 82 46
GlifName: R_
Width: 495
VWidth: 0
GlyphClass: 2
Flags: HW
HStem: 0 21<32 173 32 32 343 469 343 343> 0 21<32 173 32 32 343 469 343 343> 286 125<227 240> 567 133<227 240 32 227>
VStem: 32 141<0 700 0 700> 326 127<467.5 512>
LayerCount: 2
Back
Fore
SplineSet
299.470703125 411 m 257
 312.470703125 411 l 258
 372.470703125 411 404.818359375 447 412.047851562 488 c 256
 420.51171875 536 388.977539062 567 339.977539062 567 c 258
 326.977539062 567 l 257
 350.428710938 700 l 257
 500.428710938 700 561.6171875 616 540.458007812 496 c 256
 528.467773438 428 499.180664062 381 448.067382812 352 c 257
 479.306640625 325 494.903320312 266 490.262695312 217 c 258
 469 0 l 257
 343 0 l 257
 359.385742188 178 l 258
 366.31640625 257 348.252929688 285 277.4296875 286 c 257
 299.470703125 411 l 257
155.428710938 700 m 257
 296.428710938 700 l 257
 173 0 l 257
 32 0 l 257
 155.428710938 700 l 257
EndSplineSet
EndChar

StartChar: S
Encoding: 83 83 47
GlifName: S_
Width: 497
VWidth: 0
GlyphClass: 2
Flags: HW
HStem: 680 20<216 216 271 324>
VStem: 41 134<479.5 525 479.5 577.5> 333 141<176.5 240.5>
LayerCount: 2
Back
Fore
SplineSet
339.428710938 700 m 257
 316.153320312 568 l 257
 294.095703125 562 269.6875 537 265.456054688 513 c 256
 253.641601562 446 355.526367188 434 415.47265625 394 c 256
 470.125 358 528.837890625 311 510.852539062 209 c 256
 490.927734375 96 378.470703125 -3 270.470703125 -3 c 257
 293.393554688 127 l 257
 317.922851562 130 359.44921875 150 368.793945312 203 c 256
 382.018554688 278 275.83984375 294 220.954101562 323 c 256
 155.94921875 357 112.059570312 403 130.57421875 508 c 256
 155.083984375 647 288.252929688 699 339.428710938 700 c 257
394.428710938 700 m 257
 500.428710938 700 543.856445312 589 543.508789062 553 c 257
 405.926757812 510 l 257
 409.213867188 557 371.153320312 568 371.153320312 568 c 257
 394.428710938 700 l 257
215.470703125 -3 m 257
 106.470703125 -3 52.162109375 103 60.859375 158 c 257
 195.793945312 203 l 257
 187.919921875 147 238.393554688 127 238.393554688 127 c 257
 215.470703125 -3 l 257
EndSplineSet
EndChar

StartChar: T
Encoding: 84 84 49
GlifName: T_
Width: 485
VWidth: 0
GlyphClass: 2
Flags: HW
HStem: 0 21<172 313 172 172> 0 21<172 313 172 172> 562 138<26 172 26 459 313 459 313 313>
VStem: 172 141<0 562 0 562>
LayerCount: 2
Back
Fore
SplineSet
582.428710938 700 m 257xb0
 558.095703125 562 l 257
 412.095703125 562 l 257
 313 0 l 257
 172 0 l 257
 271.095703125 562 l 257
 125.095703125 562 l 257
 149.428710938 700 l 257
 582.428710938 700 l 257xb0
EndSplineSet
EndChar

StartChar: Thorn
Encoding: 222 222 50
GlifName: T_horn
Width: 474
VWidth: 0
GlyphClass: 2
Flags: HW
HStem: 0 21<26 167 26 26> 0 21<26 167 26 26> 208 139<221 254 254 257.5 221 299.5> 451 139<221 254 221 311.5> 680 20<26 167 167 167>
VStem: 26 141<0 700 0 700> 305 143<373 423.5>
LayerCount: 2
Back
Fore
SplineSet
282.185546875 347 m 257
 315.185546875 347 l 258
 322.185546875 347 366.361328125 348 375.177734375 398 c 256
 384.170898438 449 342.5234375 451 333.5234375 451 c 258
 300.5234375 451 l 257
 325.033203125 590 l 257
 506.033203125 590 538.984375 516 518.883789062 402 c 256
 493.668945312 259 414.67578125 208 257.67578125 208 c 257
 282.185546875 347 l 257
149.428710938 700 m 257
 290.428710938 700 l 257
 167 0 l 257
 26 0 l 257
 149.428710938 700 l 257
EndSplineSet
EndChar

StartChar: TradeMarkSign
Encoding: 261 8482 51
GlifName: T_radeM_arkS_ign
Width: 403
VWidth: 0
GlyphClass: 2
Flags: HW
HStem: 653 47<26 72 26 165 120 165 120 120>
VStem: 72 48<484 653 484 653> 188 48<484 522 484 628> 330 47<484 700 484 700>
LayerCount: 2
Back
Fore
SplineSet
273.341796875 484 m 257
 298.733398438 628 l 257
 301.733398438 628 l 257
 328.04296875 522 l 257
 321.341796875 484 l 257
 273.341796875 484 l 257
311.428710938 700 m 257
 348.428710938 700 l 257
 380.448242188 564 l 257
 425.143554688 636 l 257
 429.143554688 636 l 257
 410.27734375 529 l 257
 383.341796875 484 l 257
 350.341796875 484 l 257
 305.962890625 669 l 257
 311.428710938 700 l 257
453.428710938 700 m 257
 500.428710938 700 l 257
 462.341796875 484 l 257
 415.341796875 484 l 257
 453.428710938 700 l 257
288.428710938 700 m 257
 280.141601562 653 l 257
 235.141601562 653 l 257
 205.341796875 484 l 257
 157.341796875 484 l 257
 187.141601562 653 l 257
 141.141601562 653 l 257
 149.428710938 700 l 257
 288.428710938 700 l 257
EndSplineSet
EndChar

StartChar: U
Encoding: 85 85 52
GlifName: U_
Width: 512
VWidth: 0
GlyphClass: 2
Flags: HW
HStem: -5 142<226.5 229 226.5 229 283 285.5 226.5 313.5> 680 20<32 173 173 173 339 479 479 479>
VStem: 32 141<193 700 193 700> 339 140<193 700>
LayerCount: 2
Back
Fore
SplineSet
228.118164062 -5 m 257
 168.118164062 -5 40.6396484375 49 66.03125 193 c 258
 155.428710938 700 l 257
 296.428710938 700 l 257
 207.03125 193 l 257
 199.919921875 147 248.157226562 137 253.157226562 137 c 257
 228.118164062 -5 l 257
282.118164062 -5 m 257
 307.157226562 137 l 257
 312.157226562 137 363.919921875 147 373.03125 193 c 257
 462.428710938 700 l 257
 602.428710938 700 l 257
 513.03125 193 l 258
 487.463867188 48 343.118164062 -5 282.118164062 -5 c 257
EndSplineSet
EndChar

StartChar: V
Encoding: 86 86 57
GlifName: V_
Width: 508
VWidth: 0
GlyphClass: 2
Flags: HW
HStem: 0 21<229 276 229 229> 0 21<229 276 229 229> 680 20<26 170 170 170 338 482 482 482>
LayerCount: 2
Back
Fore
SplineSet
149.428710938 700 m 257
 293.428710938 700 l 257
 356.859375 158 l 257
 276 0 l 257
 229 0 l 257
 149.428710938 700 l 257
605.428710938 700 m 257
 542.330078125 569 476.8203125 430 410.134765625 290 c 257
 400.134765625 290 l 257
 373.631835938 514 l 257
 461.428710938 700 l 257
 605.428710938 700 l 257
EndSplineSet
EndChar

StartChar: W
Encoding: 87 87 58
GlifName: W_
Width: 725
VWidth: 0
GlyphClass: 2
Flags: HW
HStem: 0 21<229 276 229 229 442 442 442 489> 0 21<229 276 229 229 442 442 442 489> 680 20<26 170 170 170 239 383 383 383 555 699 699 699>
LayerCount: 2
Back
Fore
SplineSet
149.428710938 700 m 257xa0
 293.428710938 700 l 257
 355.859375 158 l 257
 276 0 l 257
 229 0 l 257
 149.428710938 700 l 257xa0
362.428710938 700 m 257
 506.428710938 700 l 257
 568.859375 158 l 257
 489 0 l 257
 442 0 l 257
 362.428710938 700 l 257
822.428710938 700 m 257
 627.134765625 290 l 257
 617.134765625 290 l 257
 590.631835938 514 l 257
 678.428710938 700 l 257
 822.428710938 700 l 257
EndSplineSet
EndChar

StartChar: X
Encoding: 88 88 59
GlifName: X_
Width: 464
VWidth: 0
GlyphClass: 2
Flags: HW
HStem: 0 21<26 171 26 26 293 438 293 293> 0 21<26 171 26 26 293 438 293 293> 680 20<38 175 175 175 289 426 426 426>
LayerCount: 2
Back
Fore
SplineSet
549.428710938 700 m 257
 365.654296875 361 l 257
 438 0 l 257
 293 0 l 257
 261.446289062 167 l 257
 171 0 l 257
 26 0 l 257
 225.654296875 361 l 257
 161.428710938 700 l 257
 298.428710938 700 l 257
 328.626953125 548 l 257
 412.428710938 700 l 257
 549.428710938 700 l 257
EndSplineSet
EndChar

StartChar: Y
Encoding: 89 89 60
GlifName: Y_
Width: 479
VWidth: 0
GlyphClass: 2
Flags: HW
HStem: 0 21<157 303 157 157> 0 21<157 303 157 157> 680 20<26 173 173 173 308 453 453 453>
VStem: 157 146<0 252 252 252>
LayerCount: 2
Back
Fore
SplineSet
149.428710938 700 m 257
 296.428710938 700 l 257
 347.610351562 253 l 257
 303 0 l 257
 157 0 l 257
 201.434570312 252 l 257
 149.428710938 700 l 257
368.625 565 m 257
 431.428710938 700 l 257
 576.428710938 700 l 257
 402.364257812 331 l 257
 393.364257812 331 l 257
 368.625 565 l 257
EndSplineSet
EndChar

StartChar: Z
Encoding: 90 90 63
GlifName: Z_
Width: 418
VWidth: 0
GlyphClass: 2
Flags: HW
HStem: 0 144<182 392 182 392> 560 140<26 236 26 392>
VStem: 26 366<0 141 141 141 563 700>
LayerCount: 2
Back
Fore
SplineSet
207.390625 144 m 257
 417.390625 144 l 257
 392 0 l 257
 26 0 l 257
 50.8623046875 141 l 257
 334.743164062 560 l 257
 124.743164062 560 l 257
 149.428710938 700 l 257
 515.428710938 700 l 257
 491.272460938 563 l 257
 207.390625 144 l 257
EndSplineSet
EndChar

StartChar: a
Encoding: 97 97 65
GlifName: a
Width: 435
VWidth: 0
GlyphClass: 2
Flags: HW
HStem: 1 112<163 180 163 180 229 232 163 229>
VStem: 26 101<139 149 149 162 139 167 139 183.5> 268 116<149 227 227 227 351 363 361 375>
LayerCount: 2
Back
Fore
SplineSet
319.513671875 519 m 257
 322.513671875 519 l 258
 425.513671875 519 458.762695312 424 451.00390625 380 c 258
 409.21484375 143 l 258
 408.333007812 138 406.1015625 114 427.1015625 114 c 258
 430.1015625 114 l 257
 410.176757812 1 l 257
 407.176757812 1 l 258
 370.176757812 1 343.291992188 13 326.290039062 30 c 257
 300.116210938 12 268.176757812 1 232.176757812 1 c 258
 229.176757812 1 l 257
 248.924804688 113 l 257
 251.924804688 113 l 258
 282.1015625 114 293.744140625 146 294.272460938 149 c 258
 308.026367188 227 l 257
 266.147460938 205 186.501953125 190 171.267578125 183 c 256
 164.739257812 180 157.504882812 173 155.565429688 162 c 258
 153.272460938 149 l 258
 149.74609375 129 156.924804688 113 182.924804688 113 c 258
 199.924804688 113 l 257
 180.176757812 1 l 257
 83.1767578125 1 37.28515625 64 47.3359375 121 c 258
 55.4462890625 167 l 258
 61.265625 200 74.083984375 233 120.31640625 257 c 256
 167.724609375 282 322.837890625 311 329.890625 351 c 256
 330.595703125 355 331.301757812 359 332.006835938 363 c 256
 336.23828125 387 337.236328125 404 302.764648438 407 c 256
 299.94140625 408 l 257
 319.513671875 519 l 257
252.764648438 407 m 257
 249.764648438 407 l 258
 226.412109375 405 206.767578125 390 200.243164062 353 c 258
 199.538085938 349 l 257
 101.590820312 389 l 257
 101.944335938 391 l 258
 114.462890625 462 201.513671875 519 269.513671875 519 c 258
 272.513671875 519 l 257
 252.764648438 407 l 257
EndSplineSet
EndChar

StartChar: acute
Encoding: 180 180 68
GlifName: acute
Width: 263
VWidth: 0
GlyphClass: 2
Flags: HW
HStem: 605 152<87 141 50 214>
VStem: 50 164<605 757>
LayerCount: 2
Back
Fore
SplineSet
159 605 m 261
 68 605 l 261
 105 757 l 261
 232 757 l 261
 159 605 l 261
EndSplineSet
EndChar

StartChar: ae
Encoding: 230 230 70
GlifName: ae
Width: 666
VWidth: 0
GlyphClass: 2
Flags: HW
HStem: 1 112<163 180 163 180 229 232 163 229> 208 116<384 525 384 639 384 525> 400 116<424 426 426 429>
VStem: 26 101<139 149 149 162 139 180 139 196.5> 268 116<149 208 132 227 132 227 351 363 363 373> 525 114<324 369 369 378 208 382.5>
LayerCount: 2
Back
Fore
SplineSet
552.883789062 402 m 258
 548.883789062 402 l 257
 568.984375 516 l 257
 574.984375 516 l 258
 644.984375 516 718.346679688 450 705.651367188 378 c 258
 675.67578125 208 l 257
 420.67578125 208 l 257
 409.21484375 143 l 258
 405.3359375 121 419.219726562 109 444.04296875 108 c 258
 503.04296875 108 l 258
 536.04296875 108 559.627929688 134 568.68359375 157 c 257
 661.159179688 120 l 257
 633.698242188 55 555 0 484 0 c 258
 425 0 l 258
 380 0 346.586914062 9 326.290039062 30 c 257
 300.116210938 12 268.176757812 1 232.176757812 1 c 258
 229.176757812 1 l 257
 248.924804688 113 l 257
 251.924804688 113 l 258
 282.1015625 114 293.744140625 146 294.272460938 149 c 258
 308.026367188 227 l 257
 266.147460938 205 186.501953125 190 171.267578125 183 c 256
 164.739257812 180 157.504882812 173 155.565429688 162 c 258
 153.272460938 149 l 258
 149.74609375 129 156.924804688 113 182.924804688 113 c 258
 199.924804688 113 l 257
 180.176757812 1 l 257
 83.1767578125 1 35.345703125 53 45.3955078125 110 c 258
 57.7392578125 180 l 258
 63.5576171875 213 74.083984375 233 120.31640625 257 c 256
 167.724609375 282 322.837890625 311 329.890625 351 c 258
 332.006835938 363 l 258
 336.23828125 387 337.764648438 407 302.764648438 407 c 258
 249.764648438 407 l 258
 226.764648438 407 206.767578125 390 200.243164062 353 c 258
 199.538085938 349 l 257
 101.590820312 389 l 257
 101.944335938 391 l 258
 114.462890625 462 201.513671875 519 269.513671875 519 c 258
 324.513671875 519 l 258
 364.513671875 519 393.869140625 504 414.166015625 483 c 257
 441.516601562 502 475.984375 516 514.984375 516 c 258
 519.984375 516 l 257
 499.53125 400 l 257
 496.53125 400 l 258
 470.53125 400 454.885742188 385 449.76953125 373 c 258
 441.129882812 324 l 257
 582.129882812 324 l 257
 590.064453125 369 l 258
 594.825195312 396 572.883789062 402 552.883789062 402 c 258
EndSplineSet
EndChar

StartChar: ampersand
Encoding: 38 38 72
GlifName: ampersand
Width: 687
VWidth: 0
GlyphClass: 2
Flags: HW
HStem: 682 20<257 257>
VStem: 26 157<182 227.5 182 260> 94 137<518.5 552.5 518.5 574.5> 344 133<518.5 545>
LayerCount: 2
Back
Fore
SplineSet
358.916992188 578 m 257
 358.916992188 578 331.330078125 569 325.51171875 536 c 256
 319.33984375 501 338.282226562 495 343.223632812 489 c 257
 304.431640625 269 l 257
 285.369140625 297 l 257
 256.490234375 275 227.2578125 251 218.970703125 204 c 256
 211.211914062 160 233.803710938 135 280.803710938 135 c 257
 257.529296875 3 l 257
 107.529296875 3 42.3984375 93 63.734375 214 c 256
 79.9560546875 306 146.241210938 370 222.236328125 404 c 257
 198.762695312 424 179.6953125 486 187.100585938 528 c 256
 203.499023438 621 273.079101562 681 380.78125 702 c 257
 358.916992188 578 l 257
440.428710938 700 m 257
 544.079101562 681 585.969726562 618 568.690429688 520 c 256
 555.465820312 445 484.533203125 383 426.654296875 361 c 257
 480.37109375 280 l 257
 495.721679688 299 507.424804688 320 515.833007812 345 c 257
 654.833007812 345 l 257
 632.313476562 274 599.026367188 227 551.739257812 180 c 257
 663.821289062 16 l 257
 466.821289062 16 l 257
 429.6953125 72 l 257
 401.81640625 50 356.584960938 26 319.821289062 16 c 257
 346.623046875 168 l 257
 354.504882812 173 355.680664062 174 363.739257812 180 c 257
 351.913085938 198 l 257
 402.6953125 486 l 257
 415.282226562 495 432.869140625 504 437.982421875 533 c 256
 442.213867188 557 440.506835938 570 419.622070312 582 c 257
 440.428710938 700 l 257
EndSplineSet
EndChar

StartChar: asciicircum
Encoding: 94 94 74
GlifName: asciicircum
Width: 374
VWidth: 0
GlyphClass: 2
Flags: HW
HStem: 460 296<27 264 27 264 176 290 176 413>
LayerCount: 2
Back
Fore
SplineSet
108.110351562 460 m 257
 309.302734375 756 l 257
 397.302734375 756 l 257
 494.110351562 460 l 257
 371.110351562 460 l 257
 325.325195312 603 l 257
 230.110351562 460 l 257
 108.110351562 460 l 257
EndSplineSet
EndChar

StartChar: asciitilde
Encoding: 126 126 75
GlifName: asciitilde
Width: 568
VWidth: 0
GlyphClass: 2
Flags: HW
HStem: 235 132<343 399.5> 308 132<147.5 198>
LayerCount: 2
Back
Fore
SplineSet
567.547851562 281 m 257
 505.552734375 247 459.436523438 235 422.436523438 235 c 256
 330.436523438 235 293.30859375 308 211.30859375 308 c 256
 181.30859375 308 144.721679688 299 97.9609375 272 c 257
 121.412109375 405 l 257
 170.997070312 431 209.583984375 440 240.583984375 440 c 256
 327.583984375 440 363.711914062 367 451.711914062 367 c 256
 486.711914062 367 530.828125 379 590.646484375 412 c 257
 567.547851562 281 l 257
EndSplineSet
EndChar

StartChar: asterisk
Encoding: 42 42 76
GlifName: asterisk
Width: 394
VWidth: 0
GlyphClass: 2
Flags: HW
HStem: 478 307<160 231 160 231> 517 21<92 92>
VStem: 160 71<478 564 564 564 704 785>
LayerCount: 2
Back
Fore
SplineSet
315.284179688 478 m 257
 244.284179688 478 l 257
 259.448242188 564 l 257
 183.161132812 517 l 257
 152.211914062 574 l 257
 249.615234375 633 l 257
 171.841796875 691 l 257
 223.892578125 748 l 257
 284.133789062 704 l 257
 298.416992188 785 l 257
 369.416992188 785 l 257
 354.78125 702 l 257
 433.892578125 748 l 257
 465.841796875 691 l 257
 367.438476562 632 l 257
 443.859375 572 l 257
 392.80859375 515 l 257
 330.625 565 l 257
 315.284179688 478 l 257
EndSplineSet
EndChar

StartChar: at
Encoding: 64 64 77
GlifName: at
Width: 803
VWidth: 0
GlyphClass: 2
Flags: HW
HStem: -87 109<337 457.5 337 480.5> 116 403<368 375.5 368 593> 116 124<556 580.5 556 593> 602 113<367.5 500>
VStem: 16 120<217 396.5 217 421> 205 340<257.5 273 257.5 366.5> 666 120<346 471>
LayerCount: 2
Back
Fore
SplineSet
685.162109375 103 m 257
 719.116210938 12 l 257
 650.065429688 -45 522.659179688 -87 407.659179688 -87 c 256
 179.659179688 -87 24.287109375 47 70.4853515625 309 c 256
 109.982421875 533 317.07421875 715 574.07421875 715 c 256
 736.07421875 715 893.912109375 612 858.646484375 412 c 256
 821.44140625 201 674.454101562 116 552.454101562 116 c 256
 514.454101562 116 487.157226562 137 481.388671875 161 c 257
 463.509765625 139 427.454101562 116 364.454101562 116 c 256
 288.454101562 116 239.03125 193 255.958984375 289 c 256
 283.2890625 444 418.513671875 519 500.513671875 519 c 256
 564.513671875 519 581.9296875 493 594.108398438 477 c 257
 606.869140625 504 l 257
 690.869140625 504 l 257
 606.30859375 308 l 258
 601.369140625 297 594.37109375 280 591.903320312 266 c 256
 588.905273438 249 591.318359375 240 605.318359375 240 c 256
 640.318359375 240 715.37109375 280 738.646484375 412 c 256
 759.453125 530 655.1484375 602 557.1484375 602 c 256
 390.1484375 602 220.813476562 481 191.013671875 312 c 256
 157.51171875 122 263.87890625 22 417.87890625 22 c 256
 504.87890625 22 595.287109375 47 685.162109375 103 c 257
EndSplineSet
EndChar

StartChar: b
Encoding: 98 98 79
GlifName: b
Width: 414
VWidth: 0
GlyphClass: 2
Flags: HW
HStem: 0 118<30 236 203 236 203 236> 398 118<203 236 236 237 203 236> 679 20<30 155 155 155> 679 20<30 155 155 155>
VStem: 30 125<0 699 0 699> 270 118<143 373 373 374>
LayerCount: 2
Back
Fore
SplineSet
30 0 m 257
 153.252929688 699 l 257
 278.252929688 699 l 257
 155 0 l 257
 30 0 l 257
335.76953125 373 m 257
 336.123046875 375 334.001953125 397 307.177734375 398 c 258
 273.177734375 398 l 257
 293.984375 516 l 257
 326.984375 516 l 258
 428.984375 516 461.41015625 422 454.475585938 377 c 257
 412.862304688 141 l 258
 405.103515625 97 339 0 236 0 c 258
 203 0 l 257
 223.806640625 118 l 257
 256.806640625 118 l 258
 284.806640625 118 295.038085938 142 295.21484375 143 c 257
 335.76953125 373 l 257
EndSplineSet
EndChar

StartChar: backslash
Encoding: 92 92 80
GlifName: backslash
Width: 401
VWidth: 0
GlyphClass: 2
Flags: HW
VStem: 50 301
LayerCount: 2
Back
Fore
SplineSet
483.944335938 -23 m 261
 178.638671875 716 l 261
 52.638671875 716 l 261
 356.944335938 -23 l 261
 483.944335938 -23 l 261
EndSplineSet
EndChar

StartChar: bar
Encoding: 124 124 81
GlifName: bar
Width: 205
VWidth: 0
GlyphClass: 2
Flags: HW
VStem: 50 105<-134 754 -134 754>
LayerCount: 2
Back
Fore
SplineSet
182.950195312 754 m 257
 287.950195312 754 l 257
 131.372070312 -134 l 257
 26.3720703125 -134 l 257
 182.950195312 754 l 257
EndSplineSet
EndChar

StartChar: braceleft
Encoding: 123 123 82
GlifName: braceleft
Width: 407
VWidth: 0
GlyphClass: 2
Flags: HW
HStem: -38 99<280 292 289 307> 635 100<273 307>
VStem: 112 127<192 207 207 290 290 304 146.5 306 408 469>
LayerCount: 2
Back
Fore
SplineSet
436.600585938 735 m 257
 418.967773438 635 l 257
 350.967773438 635 344.208984375 591 321.697265625 469 c 257
 306.533203125 383 l 258
 303.536132812 366 281.419921875 354 256.361328125 348 c 257
 279.951171875 340 296.306640625 325 292.603515625 304 c 258
 275.5 207 l 258
 254.1640625 86 263.755859375 61 317.755859375 61 c 257
 300.299804688 -38 l 257
 294.299804688 -38 288.299804688 -38 282.299804688 -38 c 256
 193.299804688 -38 106.534179688 -31 145.854492188 192 c 258
 163.134765625 290 l 258
 168.77734375 322 144.01171875 329 111.361328125 348 c 257
 150.006835938 363 176.241210938 370 183.94140625 408 c 258
 200.869140625 504 l 258
 238.07421875 715 327.600585938 735 436.600585938 735 c 257
EndSplineSet
EndChar

StartChar: braceright
Encoding: 125 125 83
GlifName: braceright
Width: 407
VWidth: 0
GlyphClass: 2
Flags: HW
HStem: -38 99<100 118 100 103> 635 100<100 134>
VStem: 168 127<208 290 80.5 304 80.5 314.5 408 469 469 469>
LayerCount: 2
Back
Fore
SplineSet
229.600585938 735 m 257
 338.600585938 735 421.07421875 715 383.869140625 504 c 258
 366.94140625 408 l 258
 361.241210938 370 385.006835938 363 418.361328125 348 c 257
 379.01171875 329 351.77734375 322 346.134765625 290 c 258
 328.854492188 192 l 258
 289.534179688 -31 200.299804688 -38 111.299804688 -38 c 256
 105.299804688 -38 99.2998046875 -38 93.2998046875 -38 c 257
 110.755859375 61 l 257
 164.755859375 61 183.340820312 87 204.67578125 208 c 258
 221.603515625 304 l 258
 225.306640625 325 246.951171875 340 273.361328125 348 c 257
 250.419921875 354 232.536132812 366 235.533203125 383 c 256
 235.709960938 384 235.709960938 384 235.709960938 384 c 256
 250.697265625 469 l 258
 271.208984375 591 279.967773438 635 211.967773438 635 c 257
 229.600585938 735 l 257
EndSplineSet
EndChar

StartChar: bracketleft
Encoding: 91 91 84
GlifName: bracketleft
Width: 258
VWidth: 0
GlyphClass: 2
Flags: HW
HStem: -36 110<180 244 180 244> 629 110<183 244 183 183>
VStem: 50 194<-36 74 629 739> 50 130<74 74 74 739>
LayerCount: 2
Back
Fore
SplineSet
374.305664062 739 m 257
 354.91015625 629 l 257
 293.91015625 629 l 257
 193.047851562 74 l 257
 257.047851562 74 l 257
 237.65234375 -36 l 257
 43.65234375 -36 l 257
 180.305664062 739 l 257
 374.305664062 739 l 257
EndSplineSet
EndChar

StartChar: bracketright
Encoding: 93 93 85
GlifName: bracketright
Width: 258
VWidth: 0
GlyphClass: 2
Flags: HW
HStem: -36 110<14 78 14 208 14 78> 629 110<14 75 14 208>
VStem: 14 194<-36 74 74 74 629 739 -36 739> 78 130<74 74>
LayerCount: 2
Back
Fore
SplineSet
144.305664062 739 m 257
 338.305664062 739 l 257
 201.65234375 -36 l 257
 7.65234375 -36 l 257
 27.0478515625 74 l 257
 91.0478515625 74 l 257
 185.91015625 629 l 257
 124.91015625 629 l 257
 144.305664062 739 l 257
EndSplineSet
EndChar

StartChar: breve
Encoding: 264 728 86
GlifName: breve
Width: 244
VWidth: 0
GlyphClass: 2
Flags: HW
HStem: 430 64<113 131 113 148.5>
VStem: 26 64<517 526 517 526> 154 64<517 526>
LayerCount: 2
Back
Fore
SplineSet
310.748046875 526 m 257
 301.40234375 473 250.8203125 430 197.8203125 430 c 256
 144.8203125 430 109.40234375 473 118.748046875 526 c 257
 182.748046875 526 l 257
 179.57421875 508 191.10546875 494 209.10546875 494 c 256
 227.10546875 494 243.57421875 508 246.748046875 526 c 257
 310.748046875 526 l 257
EndSplineSet
EndChar

StartChar: brokenbar
Encoding: 166 166 87
GlifName: brokenbar
Width: 222
VWidth: 0
GlyphClass: 2
Flags: HW
VStem: 50 122<-134 221 -134 221 399 754>
LayerCount: 2
Back
Fore
SplineSet
182.950195312 754 m 257
 304.950195312 754 l 257
 242.354492188 399 l 257
 120.354492188 399 l 257
 182.950195312 754 l 257
88.96875 221 m 257
 210.96875 221 l 257
 148.372070312 -134 l 257
 26.3720703125 -134 l 257
 88.96875 221 l 257
EndSplineSet
EndChar

StartChar: bullet
Encoding: 265 8226 88
GlifName: bullet
Width: 352
VWidth: 0
GlyphClass: 2
Flags: HW
LayerCount: 2
Back
Fore
SplineSet
86.65625 344 m 256
 101.467773438 428 179.458007812 496 263.458007812 496 c 256
 347.458007812 496 401.467773438 428 386.65625 344 c 256
 371.844726562 260 294.20703125 194 210.20703125 194 c 256
 126.20703125 194 71.8447265625 260 86.65625 344 c 256
EndSplineSet
EndChar

StartChar: c
Encoding: 99 99 89
GlifName: c
Width: 418
VWidth: 0
GlyphClass: 2
Flags: HW
HStem: -1 117<243 249 243 249 249 250> 496 20<185 191 191 191 233 239 239 275.5>
VStem: 30 119<141 375>
LayerCount: 2
Back
Fore
SplineSet
333.533203125 383 m 257
 331.001953125 397 309.354492188 399 309.354492188 399 c 258
 308.354492188 399 307.354492188 399 306.354492188 399 c 258
 303.354492188 399 l 257
 323.984375 516 l 257
 329.984375 516 l 258
 402.984375 516 459.994140625 448 447.298828125 376 c 258
 446.59375 372 l 257
 328.1875 330 l 257
 333.477539062 360 l 258
 335.241210938 370 336.123046875 375 333.533203125 383 c 257
242.823242188 -1 m 257
 263.454101562 116 l 257
 269.454101562 116 l 257
 271.454101562 116 292.983398438 119 300.275390625 132 c 257
 305.685546875 140 306.744140625 146 308.506835938 156 c 258
 313.796875 186 l 257
 417.390625 144 l 257
 416.685546875 140 l 258
 403.990234375 68 322.823242188 -1 249.823242188 -1 c 258
 242.823242188 -1 l 257
96.4755859375 377 m 257
 105.233398438 421 170.984375 516 275.984375 516 c 258
 281.984375 516 l 257
 261.53125 400 l 257
 255.53125 400 l 258
 224.53125 400 215.475585938 377 215.123046875 375 c 258
 173.862304688 141 l 258
 173.509765625 139 174.27734375 115 214.27734375 115 c 256
 219.1015625 114 l 257
 199 0 l 257
 194 0 l 258
 79 0 47.103515625 97 54.8623046875 141 c 258
 96.4755859375 377 l 257
EndSplineSet
EndChar

StartChar: caron
Encoding: 266 711 90
GlifName: caron
Width: 270
VWidth: 0
GlyphClass: 2
Flags: HW
HStem: 514 152<101 107 162 167 101 101>
VStem: 26 218<666 666>
LayerCount: 2
Back
Fore
SplineSet
143.43359375 666 m 257
 224.43359375 666 l 257
 241.3828125 609 l 257
 279.43359375 666 l 257
 361.43359375 666 l 257
 257.631835938 514 l 257
 191.631835938 514 l 257
 143.43359375 666 l 257
EndSplineSet
EndChar

StartChar: cedilla
Encoding: 184 184 92
GlifName: cedilla
Width: 219
VWidth: 0
GlyphClass: 2
Flags: HW
HStem: -36 91<26 44 26 89.5>
VStem: 102 92<95.5 123>
LayerCount: 2
Back
Fore
SplineSet
123.688476562 123 m 257
 215.688476562 123 l 257
 202.287109375 47 146.65234375 -36 19.65234375 -36 c 257
 35.6982421875 55 l 257
 71.6982421875 55 113.990234375 68 123.688476562 123 c 257
EndSplineSet
EndChar

StartChar: cent
Encoding: 162 162 93
GlifName: cent
Width: 494
VWidth: 0
GlyphClass: 2
Flags: HW
VStem: 32 141<181 518> 158 71<-48 -5 -5 7 7 7 693 705 705 749> 283 71<-48 -5 -5 11 -48 86 687 705 705 749> 330 138<143 215 143 215>
LayerCount: 2
Back
Fore
SplineSet
290.069335938 749 m 257
 361.069335938 749 l 257
 353.310546875 705 l 257
 333.915039062 595 l 257
 328.448242188 564 l 257
 282.272460938 563 265.21875 523 264.336914062 518 c 258
 204.915039062 181 l 258
 204.033203125 176 206.98046875 136 252.98046875 136 c 257
 244.1640625 86 l 257
 228.118164062 -5 l 257
 220.536132812 -48 l 257
 149.536132812 -48 l 257
 159.234375 7 l 257
 75.052734375 40 55.275390625 132 63.9150390625 181 c 258
 123.336914062 518 l 258
 131.977539062 567 184.375976562 660 280.194335938 693 c 257
 290.069335938 749 l 257
415.069335938 749 m 257
 486.069335938 749 l 257
 475.13671875 687 l 257
 532.670898438 656 571.50390625 587 558.984375 516 c 257
 414.63671875 480 l 257
 417.282226562 495 l 258
 419.75 509 421.690429688 520 418.805664062 532 c 256
 412.861328125 555 382.448242188 564 382.448242188 564 c 257
 387.915039062 595 l 257
 407.310546875 705 l 257
 415.069335938 749 l 257
306.98046875 136 m 257
 306.98046875 136 340.21484375 143 354.270507812 166 c 256
 361.385742188 178 363.326171875 189 365.793945312 203 c 258
 367.91015625 215 l 257
 500.091796875 182 l 257
 486.337890625 104 424.052734375 40 355.939453125 11 c 257
 345.536132812 -48 l 257
 274.536132812 -48 l 257
 282.118164062 -5 l 257
 298.1640625 86 l 257
 306.98046875 136 l 257
EndSplineSet
EndChar

StartChar: circumflex
Encoding: 267 710 94
GlifName: circumflex
Width: 270
VWidth: 0
GlyphClass: 2
Flags: HW
HStem: 514 152<26 167 101 107 162 162 162 167 101 244>
VStem: 26 218<514 514>
LayerCount: 2
Back
Fore
SplineSet
116.631835938 514 m 257
 218.43359375 666 l 257
 284.43359375 666 l 257
 334.631835938 514 l 257
 252.631835938 514 l 257
 234.682617188 571 l 257
 197.631835938 514 l 257
 116.631835938 514 l 257
EndSplineSet
EndChar

StartChar: colon
Encoding: 58 58 95
GlifName: colon
Width: 250
VWidth: 0
GlyphClass: 2
Flags: HW
HStem: -5 151<104 146> 285 151<104 146>
VStem: 50 150<49 91 339 381>
LayerCount: 2
Back
Fore
SplineSet
62.3427734375 70 m 256
 69.7490234375 112 108.744140625 146 150.744140625 146 c 256
 192.744140625 146 219.749023438 112 212.342773438 70 c 256
 204.9375 28 166.118164062 -5 124.118164062 -5 c 256
 82.1181640625 -5 54.9375 28 62.3427734375 70 c 256
113.477539062 360 m 256
 120.883789062 402 159.87890625 436 201.87890625 436 c 256
 243.87890625 436 270.883789062 402 263.477539062 360 c 256
 256.072265625 318 217.252929688 285 175.252929688 285 c 256
 133.252929688 285 106.072265625 318 113.477539062 360 c 256
EndSplineSet
EndChar

StartChar: comma
Encoding: 44 44 96
GlifName: comma
Width: 265
VWidth: 0
GlyphClass: 2
Flags: HW
LayerCount: 2
Back
Fore
SplineSet
173.944335938 -23 m 257
 46.9443359375 -23 l 257
 110.74609375 129 l 257
 237.74609375 129 l 257
 173.944335938 -23 l 257
EndSplineSet
EndChar

StartChar: copyright
Encoding: 169 169 97
GlifName: copyright
Width: 859
VWidth: 0
GlyphClass: 2
Flags: HW
HStem: -49 93<412 412 412 447> 112 89<366.5 447 447 476.5> 476 90<397.5 412 366.5 447> 636 90<412 412 412 447>
VStem: 50 89<332 339 332 339 337 339 332 464> 287 90<231 447> 720 89<332 339 338 339 327 427.5>
LayerCount: 2
Back
Fore
SplineSet
419.758789062 44 m 257
 403.360351562 -49 l 257
 232.41796875 -43 74.337890625 104 107.659179688 327 c 256
 108.364257812 331 109.069335938 335 109.774414062 339 c 256
 153.856445312 589 391.836914062 725 540.013671875 726 c 257
 524.143554688 636 l 257
 394.967773438 635 229.984375 516 198.774414062 339 c 256
 198.421875 337 197.893554688 334 197.541015625 332 c 256
 173.5625 179 274.993164062 51 419.758789062 44 c 257
530.931640625 476 m 257
 546.80078125 566 l 257
 605.80078125 566 654.397460938 507 643.641601562 446 c 257
 549.823242188 413 l 257
 553.172851562 432 l 258
 554.759765625 441 555.994140625 448 554.405273438 456 c 256
 550.874023438 470 530.931640625 476 530.931640625 476 c 257
482.44140625 201 m 257
 482.44140625 201 504.5 207 513.14453125 222 c 256
 517.37890625 229 518.61328125 236 520.200195312 245 c 258
 523.55078125 264 l 257
 605.908203125 232 l 257
 595.15234375 171 525.749023438 112 466.749023438 112 c 257
 482.44140625 201 l 257
511.80078125 566 m 257
 495.931640625 476 l 257
 466.931640625 476 456.346679688 450 455.818359375 447 c 257
 417.731445312 231 l 257
 417.202148438 228 418.793945312 203 447.793945312 203 c 257
 431.749023438 112 l 257
 340.749023438 112 321.03125 193 327.731445312 231 c 257
 365.818359375 447 l 257
 372.518554688 485 420.80078125 566 511.80078125 566 c 257
454.758789062 44 m 257
 601.993164062 51 748.5625 179 778.541015625 332 c 256
 778.893554688 334 779.421875 337 779.774414062 339 c 256
 810.984375 516 687.967773438 635 559.143554688 636 c 257
 575.013671875 726 l 257
 722.836914062 725 912.856445312 589 868.774414062 339 c 256
 868.069335938 335 867.364257812 331 866.659179688 327 c 256
 821.337890625 104 611.41796875 -43 438.360351562 -49 c 257
 454.758789062 44 l 257
EndSplineSet
EndChar

StartChar: currency
Encoding: 164 164 98
GlifName: currency
Width: 656
VWidth: 0
GlyphClass: 2
Flags: HW
HStem: 133 118<281 310 304 310 304 357 304 351> 477 118<287.5 310 304 310 304 351 351 357>
VStem: 146 120<275 275 275 276 276 452> 393 117<275 451 451 452.5>
LayerCount: 2
Back
Fore
SplineSet
435.108398438 477 m 257
 455.915039062 595 l 257
 461.915039062 595 l 258
 504.915039062 595 535.916992188 578 556.861328125 555 c 257
 643.67578125 622 l 257
 701.216796875 540 l 257
 590.405273438 456 l 258
 590.228515625 455 590.228515625 455 590.228515625 455 c 256
 558.490234375 275 l 256
 558.490234375 275 558.490234375 275 558.490234375 275 c 256
 638.501953125 190 l 257
 553.219726562 109 l 257
 490.680664062 174 l 257
 461.44921875 150 424.451171875 133 380.451171875 133 c 258
 374.451171875 133 l 257
 394.552734375 247 l 257
 400.552734375 247 l 258
 431.729492188 248 440.9609375 272 441.313476562 274 c 258
 472.5234375 451 l 258
 473.052734375 454 471.108398438 477 441.108398438 477 c 258
 435.108398438 477 l 257
145.216796875 540 m 257
 231.67578125 622 l 257
 295.861328125 555 l 257
 324.916992188 578 363.915039062 595 408.915039062 595 c 258
 414.915039062 595 l 257
 394.108398438 477 l 257
 388.108398438 477 l 258
 355.108398438 477 345.875976562 453 345.700195312 452 c 258
 314.666015625 276 l 258
 314.137695312 273 318.2578125 251 348.2578125 251 c 258
 354.2578125 251 l 257
 333.451171875 133 l 257
 327.451171875 133 l 258
 281.451171875 133 248.625 151 227.857421875 175 c 257
 141.219726562 109 l 257
 84.501953125 190 l 257
 194.490234375 275 l 256
 194.490234375 275 194.490234375 275 194.490234375 275 c 256
 226.228515625 455 l 256
 226.228515625 455 226.228515625 455 226.405273438 456 c 258
 145.216796875 540 l 257
EndSplineSet
EndChar

StartChar: d
Encoding: 100 100 99
GlifName: d
Width: 414
VWidth: 0
GlyphClass: 2
Flags: HW
HStem: 0 118<130 210 182 210 182 258 182 384> 398 118<180 210 180 210> 678 20<258 384 384 384>
VStem: 30 118<142 143 143 373> 258 126<0 698>
LayerCount: 2
Back
Fore
SplineSet
270.984375 516 m 258
 300.984375 516 l 257
 280.177734375 398 l 257
 250.177734375 398 l 257
 223.001953125 397 214.123046875 375 213.76953125 373 c 258
 173.21484375 143 l 257
 172.862304688 141 174.806640625 118 202.806640625 118 c 258
 230.806640625 118 l 257
 210 0 l 257
 182 0 l 258
 78 0 47.103515625 97 54.8623046875 141 c 258
 96.4755859375 377 l 257
 105.41015625 422 169.984375 516 270.984375 516 c 258
384 0 m 257
 258 0 l 257
 381.076171875 698 l 257
 507.076171875 698 l 257
 384 0 l 257
EndSplineSet
EndChar

StartChar: dagger
Encoding: 268 8224 100
GlifName: dagger
Width: 453
VWidth: 0
GlyphClass: 2
Flags: HW
HStem: 450 127<26 156 26 156 297 427>
VStem: 156 141<-56 450 -56 450 577 764>
LayerCount: 2
Back
Fore
SplineSet
528.740234375 577 m 257
 506.346679688 450 l 257
 376.346679688 450 l 257
 287.125976562 -56 l 257
 146.125976562 -56 l 257
 235.346679688 450 l 257
 105.346679688 450 l 257
 127.740234375 577 l 257
 257.740234375 577 l 257
 290.713867188 764 l 257
 431.713867188 764 l 257
 398.740234375 577 l 257
 528.740234375 577 l 257
EndSplineSet
EndChar

StartChar: daggerdbl
Encoding: 269 8225 101
GlifName: daggerdbl
Width: 453
VWidth: 0
GlyphClass: 2
Flags: HW
HStem: 131 127<26 156 26 156 297 427> 450 127<26 156 26 156 297 427>
VStem: 156 141<-56 131 -56 131 258 450 577 764>
LayerCount: 2
Back
Fore
SplineSet
290.713867188 764 m 257
 431.713867188 764 l 257
 398.740234375 577 l 257
 528.740234375 577 l 257
 506.346679688 450 l 257
 376.346679688 450 l 257
 342.4921875 258 l 257
 472.4921875 258 l 257
 450.098632812 131 l 257
 320.098632812 131 l 257
 287.125976562 -56 l 257
 146.125976562 -56 l 257
 179.098632812 131 l 257
 49.0986328125 131 l 257
 71.4921875 258 l 257
 201.4921875 258 l 257
 235.346679688 450 l 257
 105.346679688 450 l 257
 127.740234375 577 l 257
 257.740234375 577 l 257
 290.713867188 764 l 257
EndSplineSet
EndChar

StartChar: degree
Encoding: 176 176 102
GlifName: degree
Width: 282
VWidth: 0
GlyphClass: 2
Flags: HW
HStem: 468 77<129.5 151 129.5 172> 622 77
VStem: 25 77<572.5 594 572.5 615> 179 77<572.5 594>
LayerCount: 2
Back
Fore
SplineSet
204.798828125 583 m 256
 201.095703125 562 215.098632812 545 236.098632812 545 c 256
 258.098632812 545 278.095703125 562 281.798828125 583 c 256
 285.677734375 605 271.67578125 622 249.67578125 622 c 256
 228.67578125 622 208.677734375 605 204.798828125 583 c 256
127.798828125 583 m 256
 139.083984375 647 200.076171875 698 263.076171875 698 c 256
 327.076171875 698 370.083984375 647 358.798828125 583 c 256
 347.690429688 520 286.521484375 468 222.521484375 468 c 256
 159.521484375 468 116.690429688 520 127.798828125 583 c 256
EndSplineSet
EndChar

StartChar: dieresis
Encoding: 168 168 103
GlifName: dieresis
Width: 320
VWidth: 0
GlyphClass: 2
Flags: HW
LayerCount: 2
Back
Fore
SplineSet
289.549804688 678 m 256
 296.955078125 720 335.950195312 754 377.950195312 754 c 256
 419.950195312 754 446.955078125 720 439.549804688 678 c 256
 432.143554688 636 393.325195312 603 351.325195312 603 c 256
 309.325195312 603 282.143554688 636 289.549804688 678 c 256
119.549804688 678 m 256
 126.955078125 720 165.950195312 754 207.950195312 754 c 256
 249.950195312 754 276.955078125 720 269.549804688 678 c 256
 262.143554688 636 223.325195312 603 181.325195312 603 c 256
 139.325195312 603 112.143554688 636 119.549804688 678 c 256
EndSplineSet
EndChar

StartChar: dollar
Encoding: 36 36 105
GlifName: dollar
Width: 501
VWidth: 0
GlyphClass: 2
Flags: HW
VStem: 38 134<499.5 525 499.5 553.5> 142 71<-47 13 13 13 679 750> 268 71<-47 -3 -3 12 -47 127 682 750> 330 141<176.5 222>
LayerCount: 2
Back
Fore
SplineSet
343.467773438 428 m 257
 367.705078125 418 391.764648438 407 412.47265625 394 c 256
 467.125 358 525.837890625 311 507.852539062 209 c 256
 492.51171875 122 421.758789062 44 341.116210938 12 c 257
 330.712890625 -47 l 257
 259.712890625 -47 l 257
 267.470703125 -3 l 256
 290.393554688 127 l 257
 314.922851562 130 356.44921875 150 365.793945312 203 c 256
 372.495117188 241 349.374023438 263 317.37109375 280 c 257
 343.467773438 428 l 257
345.245117188 750 m 257
 313.153320312 568 l 257
 291.095703125 562 266.6875 537 262.456054688 513 c 256
 257.6953125 486 271.697265625 469 293.052734375 454 c 257
 266.250976562 302 l 257
 248.485351562 309 231.719726562 316 217.954101562 323 c 256
 152.94921875 357 109.059570312 403 127.57421875 508 c 256
 143.620117188 599 205.96484375 652 261.725585938 679 c 257
 274.245117188 750 l 257
 345.245117188 750 l 257
459.254882812 682 m 257
 516.436523438 649 540.26953125 580 540.508789062 553 c 257
 402.926757812 510 l 257
 406.213867188 557 368.153320312 568 368.153320312 568 c 257
 400.245117188 750 l 257
 471.245117188 750 l 257
 459.254882812 682 l 257
204.712890625 -47 m 257
 133.712890625 -47 l 257
 144.291992188 13 l 257
 80.9345703125 45 51.4541015625 116 57.859375 158 c 257
 192.793945312 203 l 257
 184.919921875 147 235.393554688 127 235.393554688 127 c 257
 204.712890625 -47 l 257
EndSplineSet
EndChar

StartChar: dotaccent
Encoding: 270 729 106
GlifName: dotaccent
Width: 202
VWidth: 0
GlyphClass: 2
Flags: HW
HStem: 603 151<80 122>
VStem: 26 150<657 699>
LayerCount: 2
Back
Fore
SplineSet
145.549804688 678 m 256
 152.955078125 720 191.950195312 754 233.950195312 754 c 256
 275.950195312 754 302.955078125 720 295.549804688 678 c 256
 288.143554688 636 249.325195312 603 207.325195312 603 c 256
 165.325195312 603 138.143554688 636 145.549804688 678 c 256
EndSplineSet
EndChar

StartChar: dotlessi
Encoding: 271 305 107
GlifName: dotlessi
Width: 174
VWidth: 0
GlyphClass: 2
Flags: HW
LayerCount: 2
Back
Fore
SplineSet
148 0 m 257
 26 0 l 257
 116.984375 516 l 257
 238.984375 516 l 257
 148 0 l 257
EndSplineSet
EndChar

StartChar: e
Encoding: 101 101 108
GlifName: e
Width: 424
VWidth: 0
GlyphClass: 2
Flags: HW
HStem: 0 111<131 242 183 242 236 242 236 242> 208 116<148 283 148 397 148 283> 402 114<236 240 182 236>
VStem: 26 122<141 208 324 369> 283 114<324 369 369 378>
LayerCount: 2
Back
Fore
SplineSet
310.883789062 402 m 258
 306.883789062 402 l 257
 326.984375 516 l 257
 332.984375 516 l 258
 402.984375 516 476.346679688 450 463.651367188 378 c 258
 433.67578125 208 l 257
 184.67578125 208 l 257
 172.862304688 141 l 258
 172.333007812 138 174.219726562 109 202.04296875 108 c 258
 207.04296875 108 l 257
 188 0 l 257
 183 0 l 258
 79 0 42.927734375 96 50.8623046875 141 c 258
 92.4755859375 377 l 257
 101.41015625 422 170.984375 516 272.984375 516 c 258
 277.984375 516 l 257
 257.53125 400 l 257
 254.53125 400 l 258
 225.53125 400 215.00390625 380 213.064453125 369 c 258
 205.129882812 324 l 257
 340.129882812 324 l 257
 348.064453125 369 l 258
 352.825195312 396 330.883789062 402 310.883789062 402 c 258
236 0 m 257
 255.572265625 111 l 257
 261.572265625 111 l 258
 292.924804688 113 317.275390625 132 324.978515625 153 c 258
 326.68359375 157 l 257
 419.159179688 120 l 257
 417.806640625 118 l 256
 391.521484375 54 312 0 242 0 c 258
 236 0 l 257
EndSplineSet
EndChar

StartChar: eight
Encoding: 56 56 113
GlifName: eight
Width: 486
VWidth: 0
GlyphClass: 2
Flags: HW
HStem: 0 125<190 212 210 212 212 276 212 275> 571 127<179 214 179 272>
VStem: 26 128<183 226 183 234> 329 123<471.5 524> 332 128<183 226>
LayerCount: 2
Back
Fore
SplineSet
296.041015625 125 m 257
 330.627929688 134 361.09375 165 367.44140625 201 c 256
 376.2578125 251 353.313476562 274 322.900390625 283 c 257
 345.823242188 413 l 257
 383.762695312 424 407.641601562 446 416.634765625 497 c 256
 426.15625 551 390.153320312 568 372.682617188 571 c 257
 395.076171875 698 l 257
 465.076171875 698 561.146484375 619 539.987304688 499 c 256
 525.17578125 415 471.067382812 352 456.538085938 349 c 257
 481.1875 330 507.431640625 269 495.088867188 199 c 256
 469.345703125 53 316 0 276 0 c 258
 275 0 l 257
 296.041015625 125 l 257
234.041015625 125 m 257
 211 0 l 257
 210 0 l 258
 170 0 35.345703125 53 61.0888671875 199 c 256
 73.431640625 269 121.1875 330 152.538085938 349 c 257
 139.067382812 352 106.17578125 415 120.987304688 499 c 256
 142.146484375 619 267.076171875 698 337.076171875 698 c 257
 314.682617188 571 l 257
 296.153320312 568 254.15625 551 244.634765625 497 c 256
 235.641601562 446 251.762695312 424 285.823242188 413 c 257
 262.900390625 283 l 257
 229.313476562 274 198.2578125 251 189.44140625 201 c 256
 183.09375 165 202.627929688 134 234.041015625 125 c 257
EndSplineSet
EndChar

StartChar: emdash
Encoding: 272 8212 114
GlifName: emdash
Width: 906
VWidth: 0
GlyphClass: 2
Flags: HW
HStem: 230 127<26 880 26 880>
LayerCount: 2
Back
Fore
SplineSet
942.94921875 357 m 257
 920.555664062 230 l 257
 66.5556640625 230 l 257
 88.94921875 357 l 257
 942.94921875 357 l 257
EndSplineSet
EndChar

StartChar: endash
Encoding: 273 8211 115
GlifName: endash
Width: 532
VWidth: 0
GlyphClass: 2
Flags: HW
HStem: 230 127<26 506 26 506>
LayerCount: 2
Back
Fore
SplineSet
568.94921875 357 m 257
 546.555664062 230 l 257
 66.5556640625 230 l 257
 88.94921875 357 l 257
 568.94921875 357 l 257
EndSplineSet
EndChar

StartChar: equal
Encoding: 61 61 116
GlifName: equal
Width: 418
VWidth: 0
GlyphClass: 2
Flags: HW
HStem: 131 127<50 368 50 368> 325 127<50 368 50 368>
VStem: 50 318<131 258 131 258 325 452 131 452>
LayerCount: 2
Back
Fore
SplineSet
413.4921875 258 m 257
 391.098632812 131 l 257
 73.0986328125 131 l 257
 95.4921875 258 l 257
 413.4921875 258 l 257
447.700195312 452 m 257
 425.306640625 325 l 257
 107.306640625 325 l 257
 129.700195312 452 l 257
 447.700195312 452 l 257
EndSplineSet
EndChar

StartChar: eth
Encoding: 240 240 117
GlifName: eth
Width: 420
VWidth: 0
GlyphClass: 2
Flags: HW
HStem: -1 118<132 192 186 192 233 239 186 233> 398 118<169.5 192 186 192 233 239 186 233>
VStem: 28 120<144.5 154 154 363> 275 117<152 363 363 364 364 371.5>
LayerCount: 2
Back
Fore
SplineSet
365.390625 558 m 257
 305.392578125 541 l 257
 297.443359375 598 l 257
 350.264648438 614 l 257
 340.556640625 627 326.3203125 637 306.083984375 647 c 257
 317.897460938 714 l 257
 373.958007812 703 416.725585938 679 443.025390625 641 c 257
 495.846679688 657 l 257
 503.620117188 599 l 257
 467.680664062 588 l 257
 479.626953125 548 480.163085938 500 469.936523438 442 c 258
 458.298828125 376 l 257
 456.182617188 364 l 257
 416.862304688 141 l 258
 408.927734375 96 342.823242188 -1 238.823242188 -1 c 258
 232.823242188 -1 l 257
 253.629882812 117 l 257
 259.629882812 117 l 258
 290.806640625 118 299.862304688 141 301.801757812 152 c 258
 339.006835938 363 l 258
 342.00390625 380 339.177734375 398 309.177734375 398 c 258
 303.177734375 398 l 257
 323.984375 516 l 257
 329.984375 516 l 258
 341.984375 516 352.80859375 515 363.279296875 512 c 257
 364.453125 530 366.098632812 545 365.390625 558 c 257
94.298828125 376 m 258
 102.233398438 421 169.984375 516 276.984375 516 c 258
 282.984375 516 l 257
 262.177734375 398 l 257
 256.177734375 398 l 258
 223.177734375 398 213.76953125 373 212.006835938 363 c 258
 175.154296875 154 l 258
 171.803710938 135 176.629882812 117 206.629882812 117 c 258
 212.629882812 117 l 257
 191.823242188 -1 l 257
 185.823242188 -1 l 258
 77.8232421875 -1 45.103515625 97 52.8623046875 141 c 258
 94.298828125 376 l 258
EndSplineSet
EndChar

StartChar: exclam
Encoding: 33 33 118
GlifName: exclam
Width: 329
VWidth: 0
GlyphClass: 2
Flags: HW
LayerCount: 2
Back
Fore
SplineSet
97.345703125 53 m 256
 104.750976562 95 143.74609375 129 185.74609375 129 c 256
 227.74609375 129 254.750976562 95 247.345703125 53 c 256
 239.939453125 11 201.12109375 -22 159.12109375 -22 c 256
 117.12109375 -22 89.939453125 11 97.345703125 53 c 256
129.270507812 166 m 257
 223.428710938 700 l 257
 352.428710938 700 l 257
 258.270507812 166 l 257
 129.270507812 166 l 257
EndSplineSet
EndChar

StartChar: exclamdown
Encoding: 161 161 119
GlifName: exclamdown
Width: 210
VWidth: 0
GlyphClass: 2
Flags: HW
HStem: 0 21<38 167 38 38> 0 21<38 167 38 38> 571 151<80 122>
VStem: 26 150<626 668> 38 129<0 534 0 534>
LayerCount: 2
Back
Fore
SplineSet
140.083984375 647 m 256
 147.489257812 689 186.307617188 722 228.307617188 722 c 256
 270.307617188 722 297.489257812 689 290.083984375 647 c 256
 282.677734375 605 243.682617188 571 201.682617188 571 c 256
 159.682617188 571 132.677734375 605 140.083984375 647 c 256
132.158203125 534 m 257
 261.158203125 534 l 257
 167 0 l 257
 38 0 l 257
 132.158203125 534 l 257
EndSplineSet
EndChar

StartChar: f
Encoding: 102 102 120
GlifName: f
Width: 304
VWidth: 0
GlyphClass: 2
Flags: HW
HStem: 0 21<89 211 89 89> 0 21<89 211 89 89> 400 116<26 89 26 89> 579 117<244 277 244 244>
VStem: 89 122<0 400 0 400 516 552>
LayerCount: 2
Back
Fore
SplineSet
186.33203125 552 m 258xb8
 194.267578125 597 262.546875 695 365.723632812 696 c 258
 401.723632812 696 l 257
 379.09375 579 l 257
 346.09375 579 l 257
 317.916992188 578 308.861328125 555 308.33203125 552 c 258
 301.80859375 515 l 257
 367.984375 516 l 257
 347.53125 400 l 257
 281.53125 400 l 257
 211 0 l 257
 89 0 l 257
 159.53125 400 l 257
 96.53125 400 l 257
 116.984375 516 l 257
 179.984375 516 l 257
 186.33203125 552 l 258xb8
EndSplineSet
EndChar

StartChar: fi
Encoding: 274 64257 121
GlifName: fi
Width: 494
VWidth: 0
GlyphClass: 2
Flags: HW
HStem: 0 21<89 211 89 89 335 457 335 335> 0 21<89 211 89 89 335 457 335 335> 400 116<26 89 26 89 211 335> 558 145<375 415> 579 117<244 277 244 244>
VStem: 89 122<0 400 0 400 516 552> 322 146<610.5 650> 335 122<0 400 400 400>
LayerCount: 2
Back
Fore
SplineSet
579.0859375 630 m 256
 572.208984375 591 533.390625 558 493.390625 558 c 256
 453.390625 558 426.208984375 591 433.0859375 630 c 256
 440.138671875 670 478.958007812 703 518.958007812 703 c 256
 558.958007812 703 586.138671875 670 579.0859375 630 c 256
186.33203125 552 m 258
 194.267578125 597 262.546875 695 365.723632812 696 c 258
 426.723632812 696 l 257
 397.09375 579 l 261
 346.09375 579 l 258
 317.916992188 578 308.861328125 555 308.33203125 552 c 258
 301.984375 516 l 257
 547.984375 516 l 257
 457 0 l 257
 335 0 l 257
 405.53125 400 l 257
 281.53125 400 l 257
 211 0 l 257
 89 0 l 257
 159.53125 400 l 257
 96.53125 400 l 257
 116.984375 516 l 257
 179.984375 516 l 257
 186.33203125 552 l 258
EndSplineSet
EndChar

StartChar: five
Encoding: 53 53 122
GlifName: five
Width: 492
VWidth: 0
GlyphClass: 2
Flags: HW
HStem: 0 126<162 204 204 258> 324 123<195.5 204 195.5 258> 573 127<171 171>
VStem: 338 128<199 252>
LayerCount: 2
Back
Fore
SplineSet
510.211914062 574 m 257
 272.03515625 573 l 257
 236.936523438 442 l 257
 250.465820312 445 265.818359375 447 282.818359375 447 c 257
 261.129882812 324 l 257
 226.600585938 321 201.07421875 301 186.4296875 286 c 257
 88.419921875 354 l 257
 178.428710938 700 l 257
 532.428710938 700 l 257
 510.211914062 574 l 257
336.818359375 447 m 257
 479.2890625 444 524.716796875 333 505.321289062 223 c 256
 480.458984375 82 363.352539062 2 258 0 c 257
 280.216796875 126 l 257
 330.803710938 135 368.680664062 174 377.497070312 224 c 256
 387.37109375 280 352.248046875 319 315.129882812 324 c 257
 336.818359375 447 l 257
161.857421875 175 m 257
 172.390625 144 200.098632812 131 226.216796875 126 c 257
 204 0 l 257
 120 0 68.111328125 46 46.8671875 107 c 257
 161.857421875 175 l 257
EndSplineSet
EndChar

StartChar: fl
Encoding: 275 64258 123
GlifName: fl
Width: 483
VWidth: 0
GlyphClass: 2
Flags: HW
HStem: 0 21<89 211 89 89 331 457 331 331> 0 21<89 211 89 89 331 457 331 331> 400 116<26 89 26 89> 579 117<244 331 244 244>
VStem: 89 122<0 400 0 400 516 552> 331 126<0 579 579 579>
LayerCount: 2
Back
Fore
SplineSet
457 0 m 257
 331 0 l 257
 433.09375 579 l 257
 346.09375 579 l 258
 317.916992188 578 308.861328125 555 308.33203125 552 c 258
 301.80859375 515 l 257
 367.984375 516 l 257
 347.53125 400 l 257
 281.53125 400 l 257
 211 0 l 257
 89 0 l 257
 159.53125 400 l 257
 96.53125 400 l 257
 116.984375 516 l 257
 179.984375 516 l 257
 186.33203125 552 l 258
 194.267578125 597 262.546875 695 365.723632812 696 c 258
 579.723632812 696 l 257
 457 0 l 257
EndSplineSet
EndChar

StartChar: florin
Encoding: 276 402 124
GlifName: florin
Width: 382
VWidth: 0
GlyphClass: 2
Flags: HWO
HStem: -168 105<53 108 53 109 26 108> 400 116<78 141 78 141> 579 117<296 329 296 296>
VStem: 141 122<-36 -30 -30 0 0 7 7 400 516 552>
LayerCount: 2
Back
Fore
SplineSet
238.33203125 552 m 258
 246.267578125 597 314.546875 695 417.723632812 696 c 258
 457.723632812 696 l 257
 431.09375 579 l 257
 398.09375 579 l 258
 369.916992188 578 360.861328125 555 360.33203125 552 c 258
 353.80859375 515 l 257
 419.984375 516 l 257
 399.53125 400 l 257
 333.53125 400 l 257
 264.234375 7 l 257
 263 0 l 257
 257.709960938 -30 l 258
 246.778320312 -92 191.376953125 -168 79.376953125 -168 c 258
 17.376953125 -168 l 257
 41.8916015625 -63 l 257
 96.8916015625 -63 l 258
 125.067382812 -62 134.123046875 -39 134.65234375 -36 c 258
 141 0 l 257
 142.234375 7 l 257
 211.53125 400 l 257
 148.53125 400 l 257
 168.984375 516 l 257
 231.984375 516 l 257
 238.33203125 552 l 258
EndSplineSet
EndChar

StartChar: four
Encoding: 52 52 125
GlifName: four
Width: 483
VWidth: 0
GlyphClass: 2
Flags: HW
HStem: 0 21<273 403 273 273> 0 21<273 403 273 273> 145 127<170 216 26 26 403 457> 681 20<273 403 403 403>
VStem: 26 190<145 272 145 272> 273 184<145 272 145 701> 273 130<0 145 0 272 272 701>
LayerCount: 2
Back
Fore
SplineSet
263.9609375 272 m 257
 241.567382812 145 l 257
 51.5673828125 145 l 257
 73.9609375 272 l 257
 321.443359375 598 l 257
 277.890625 351 l 257
 217.9609375 272 l 257
 263.9609375 272 l 257
504.9609375 272 m 257
 482.567382812 145 l 257
 428.567382812 145 l 257
 403 0 l 257
 273 0 l 257
 396.60546875 701 l 257
 526.60546875 701 l 257
 450.9609375 272 l 257
 504.9609375 272 l 257
EndSplineSet
EndChar

StartChar: fraction
Encoding: 277 8260 126
GlifName: fraction
Width: 560
VWidth: 0
GlyphClass: 2
Flags: HW
HStem: 682 20<458 534 534 534>
LayerCount: 2
Back
Fore
SplineSet
25.6474609375 -2 m 257
 581.78125 702 l 257
 657.78125 702 l 257
 108.647460938 -2 l 257
 25.6474609375 -2 l 257
EndSplineSet
EndChar

StartChar: g
Encoding: 103 103 127
GlifName: g
Width: 415
VWidth: 0
GlyphClass: 2
Flags: HW
HStem: -181 112<54 234 54 236 26 234> -1 113<136.5 192 189 192 189 234 189 231> 403 113<173 192 189 192 231 234 189 231>
VStem: 35 115<139 140 140 375> 231 158<-1 109 109 109 403 516> 272 117<-40 3 3 3 139 374 374 375.5 511 516>
LayerCount: 2
Back
Fore
SplineSet
204.084960938 -181 m 257xf4
 13.0849609375 -181 l 257
 36.8330078125 -69 l 257
 221.833007812 -69 l 257
 253.009765625 -68 264.41796875 -43 264.947265625 -40 c 258
 272.529296875 3 l 257xf4
 260 0 247.823242188 -1 233.823242188 -1 c 258
 230.823242188 -1 l 257
 250.219726562 109 l 257xf8
 253.219726562 109 l 258
 284.395507812 110 295.98046875 136 296.509765625 139 c 258
 337.946289062 374 l 258xf4
 338.475585938 377 336.059570312 403 305.059570312 403 c 258
 302.059570312 403 l 257
 321.984375 516 l 257xf8
 324.984375 516 l 258
 337.984375 516 351.631835938 514 362.103515625 511 c 257
 362.984375 516 l 257xf4
 479.984375 516 l 257xf8
 381.947265625 -40 l 258
 374.365234375 -83 307.260742188 -180 204.084960938 -181 c 257xf4
279.984375 516 m 258
 282.984375 516 l 257
 263.059570312 403 l 257
 260.059570312 403 l 258
 228.059570312 403 216.651367188 378 216.123046875 375 c 258
 174.685546875 140 l 258
 174.157226562 137 177.749023438 112 208.749023438 112 c 258
 211.749023438 112 l 257
 191.823242188 -1 l 257
 188.823242188 -1 l 258
 83.8232421875 -1 51.927734375 96 59.509765625 139 c 258
 101.651367188 378 l 257
 110.41015625 422 175.984375 516 279.984375 516 c 258
EndSplineSet
EndChar

StartChar: germandbls
Encoding: 223 223 128
GlifName: germandbls
Width: 522
VWidth: 0
GlyphClass: 2
Flags: HW
HStem: 0 109<26 327 199 327 199 327> 586 119<199.5 242>
VStem: 26 129<0 457 457 457> 191 114<355 364.5 355 408.5> 294 112<507 518 405 519 405 545.5> 379 117<136.5 175.5>
LayerCount: 2
Back
Fore
SplineSet
155 0 m 257
 26 0 l 257
 106.581054688 457 l 258
 120.629882812 531 140.310546875 705 350.310546875 705 c 256
 520.310546875 705 507.387695312 575 497.336914062 518 c 258
 477.412109375 405 l 257
 413.588867188 406 l 257
 378.53125 400 369.888671875 368 368.654296875 361 c 256
 366.538085938 349 367.482421875 326 443.721679688 299 c 256
 490.724609375 282 538.84765625 243 524.211914062 160 c 256
 506.05078125 57 420 0 327 0 c 258
 199 0 l 257
 218.219726562 109 l 257
 346.219726562 109 l 258
 361.395507812 110 400.159179688 120 405.978515625 153 c 256
 413.913085938 198 366.265625 200 316.202148438 228 c 256
 272.434570312 252 241.60546875 287 256.416992188 371 c 256
 269.641601562 446 330.223632812 489 383.397460938 507 c 257
 385.513671875 519 l 258
 394.859375 572 362.327148438 586 328.327148438 586 c 256
 277.327148438 586 252.685546875 554 242.810546875 498 c 258
 155 0 l 257
EndSplineSet
EndChar

StartChar: grave
Encoding: 96 96 129
GlifName: grave
Width: 263
VWidth: 0
GlyphClass: 2
Flags: HW
HStem: 605 152<122 122 122 176 49 213>
VStem: 49 164<605 757>
LayerCount: 2
Back
Fore
SplineSet
228.677734375 605 m 257
 182.479492188 757 l 257
 309.479492188 757 l 257
 319.677734375 605 l 257
 228.677734375 605 l 257
EndSplineSet
EndChar

StartChar: greater
Encoding: 62 62 130
GlifName: greater
Width: 414
VWidth: 0
GlyphClass: 2
Flags: HW
LayerCount: 2
Back
Fore
SplineSet
118.163085938 500 m 257
 440.77734375 322 l 257
 429.4921875 258 l 257
 43.9296875 79 l 257
 66.3232421875 206 l 257
 257.487304688 292 l 257
 95.2412109375 370 l 257
 118.163085938 500 l 257
EndSplineSet
EndChar

StartChar: guillemotleft
Encoding: 171 171 131
GlifName: guillemotleft
Width: 475
VWidth: 0
GlyphClass: 2
Flags: HW
LayerCount: 2
Back
Fore
SplineSet
322.108398438 477 m 257
 300.067382812 352 l 257
 200.487304688 292 l 257
 277.497070312 224 l 257
 255.985351562 102 l 257
 72.6689453125 259 l 257
 83.6005859375 321 l 257
 322.108398438 477 l 257
533.108398438 477 m 257
 511.067382812 352 l 257
 411.487304688 292 l 257
 488.497070312 224 l 257
 466.985351562 102 l 257
 283.668945312 259 l 257
 294.600585938 321 l 257
 533.108398438 477 l 257
EndSplineSet
EndChar

StartChar: guillemotright
Encoding: 187 187 132
GlifName: guillemotright
Width: 414
VWidth: 0
GlyphClass: 2
Flags: HW
LayerCount: 2
Back
Fore
SplineSet
110.108398438 477 m 257
 293.600585938 321 l 257
 282.668945312 259 l 257
 43.9853515625 102 l 257
 65.4970703125 224 l 257
 166.487304688 292 l 257
 88.0673828125 352 l 257
 110.108398438 477 l 257
321.108398438 477 m 257
 504.600585938 321 l 257
 493.668945312 259 l 257
 254.985351562 102 l 257
 276.497070312 224 l 257
 377.487304688 292 l 257
 299.067382812 352 l 257
 321.108398438 477 l 257
EndSplineSet
EndChar

StartChar: guilsinglleft
Encoding: 278 8249 133
GlifName: guilsinglleft
Width: 338
VWidth: 0
GlyphClass: 2
Flags: HW
VStem: 26 286<79 292>
LayerCount: 2
Back
Fore
SplineSet
245.163085938 500 m 257
 400.163085938 500 l 257
 232.487304688 292 l 257
 325.9296875 79 l 257
 170.9296875 79 l 257
 77.4873046875 292 l 257
 245.163085938 500 l 257
EndSplineSet
EndChar

StartChar: guilsinglright
Encoding: 279 8250 134
GlifName: guilsinglright
Width: 338
VWidth: 0
GlyphClass: 2
Flags: HW
VStem: 26 286<79 292 292 500>
LayerCount: 2
Back
Fore
SplineSet
269.163085938 500 m 257
 363.487304688 292 l 257
 194.9296875 79 l 257
 39.9296875 79 l 257
 208.487304688 292 l 257
 114.163085938 500 l 257
 269.163085938 500 l 257
EndSplineSet
EndChar

StartChar: h
Encoding: 104 104 135
GlifName: h
Width: 421
VWidth: 0
GlyphClass: 2
Flags: HW
HStem: 1 21<30 145 30 30 281 281 281 395> 1 21<30 145 30 30 281 281 281 395> 399 112<190 193 190 193 190 238 238 241> 678 20<30 144 144 144>
VStem: 30 163<399 511 399 698> 30 115<1 365> 281 114<1 365 365 367>
LayerCount: 2
Back
Fore
SplineSet
145.176757812 1 m 257
 30.1767578125 1 l 257
 153.076171875 698 l 257
 267.076171875 698 l 257
 233.044921875 505 l 257
 236.221679688 506 l 258
 248.75 509 266.103515625 511 280.103515625 511 c 258
 283.103515625 511 l 257
 263.354492188 399 l 257
 260.354492188 399 l 258
 227.825195312 396 210.241210938 370 209.359375 365 c 258
 145.176757812 1 l 257
328.103515625 511 m 257
 331.103515625 511 l 256
 427.397460938 507 473.2890625 444 460.946289062 374 c 258
 395.176757812 1 l 257
 281.176757812 1 l 257
 345.359375 365 l 258
 346.064453125 369 344.825195312 396 311.354492188 399 c 258
 308.354492188 399 l 257
 328.103515625 511 l 257
EndSplineSet
EndChar

StartChar: hungarumlaut
Encoding: 280 733 136
GlifName: hungarumlaut
Width: 336
VWidth: 0
GlyphClass: 2
Flags: W
HStem: 605 152<55 109 26 167 55 169 198 252>
VStem: 26 284<605 757>
LayerCount: 2
Back
Fore
SplineSet
109 605 m 257
 26 605 l 257
 55 757 l 257
 167 757 l 257
 109 605 l 257
252 605 m 257
 169 605 l 257
 198 757 l 257
 310 757 l 257
 252 605 l 257
EndSplineSet
Validated: 1
EndChar

StartChar: hyphen
Encoding: 45 45 137
GlifName: hyphen
Width: 416
VWidth: 0
GlyphClass: 2
Flags: HW
LayerCount: 2
Back
Fore
SplineSet
428.94921875 357 m 257
 406.555664062 230 l 257
 90.5556640625 230 l 257
 112.94921875 357 l 257
 428.94921875 357 l 257
EndSplineSet
EndChar

StartChar: i
Encoding: 105 105 138
GlifName: i
Width: 199
VWidth: 0
GlyphClass: 2
Flags: HW
HStem: 0 21<39 161 39 39> 0 21<39 161 39 39> 496 20<39 161 161 161> 558 145<79 119>
VStem: 26 146<610.5 650> 39 122<0 516>
LayerCount: 2
Back
Fore
SplineSet
283.0859375 630 m 256
 276.208984375 591 237.390625 558 197.390625 558 c 256
 157.390625 558 130.208984375 591 137.0859375 630 c 256
 144.138671875 670 182.958007812 703 222.958007812 703 c 256
 262.958007812 703 290.138671875 670 283.0859375 630 c 256
161 0 m 257
 39 0 l 257
 129.984375 516 l 257
 251.984375 516 l 257
 161 0 l 257
EndSplineSet
EndChar

StartChar: iacute
Encoding: 237 237 139
GlifName: iacute
Width: 199
VWidth: 0
GlyphClass: 2
Flags: HW
HStem: 0 21<39 161 39 39> 0 21<39 161 39 39> 496 20<39 161 161 161>
VStem: 39 122<0 516>
LayerCount: 2
Back
Fore
SplineSet
248 577 m 257
 157 577 l 257
 194 729 l 257
 321 729 l 257
 248 577 l 257
161 0 m 257
 39 0 l 257
 129.984375 516 l 257
 251.984375 516 l 257
 161 0 l 257
EndSplineSet
EndChar

StartChar: icircumflex
Encoding: 238 238 140
GlifName: icircumflex
Width: 174
VWidth: 0
GlyphClass: 2
Flags: HW
HStem: 577 152
VStem: -22 218
LayerCount: 2
Back
Fore
SplineSet
148 0 m 257
 26 0 l 257
 116.984375 516 l 257
 238.984375 516 l 257
 148 0 l 257
79.740234375 577 m 257
 181.541992188 729 l 257
 247.541992188 729 l 257
 297.740234375 577 l 257
 215.740234375 577 l 257
 197.791015625 634 l 257
 160.740234375 577 l 257
 79.740234375 577 l 257
EndSplineSet
EndChar

StartChar: idieresis
Encoding: 239 239 141
GlifName: idieresis
Width: 199
VWidth: 0
GlyphClass: 2
Flags: HW
HStem: 0 21<39 161 39 39> 0 21<39 161 39 39> 496 20<39 161 161 161> 576 151<-7 35 163 205>
VStem: -61 150<630 672> 39 122<0 516> 109 150<630 672>
LayerCount: 2
Back
Fore
SplineSet
161 0 m 257
 39 0 l 257
 129.984375 516 l 257
 251.984375 516 l 257
 161 0 l 257
223.7890625 651 m 256
 231.194335938 693 270.189453125 727 312.189453125 727 c 256
 354.189453125 727 381.194335938 693 373.7890625 651 c 256
 366.3828125 609 327.564453125 576 285.564453125 576 c 256
 243.564453125 576 216.3828125 609 223.7890625 651 c 256
53.7890625 651 m 256
 61.1943359375 693 100.189453125 727 142.189453125 727 c 256
 184.189453125 727 211.194335938 693 203.7890625 651 c 256
 196.3828125 609 157.564453125 576 115.564453125 576 c 256
 73.564453125 576 46.3828125 609 53.7890625 651 c 256
EndSplineSet
EndChar

StartChar: igrave
Encoding: 236 236 142
GlifName: igrave
Width: 199
VWidth: 0
GlyphClass: 2
Flags: HW
HStem: 0 21<39 161 39 39> 0 21<39 161 39 39> 496 20<39 161 161 161>
VStem: 39 122<0 516>
LayerCount: 2
Back
Fore
SplineSet
161 0 m 257
 39 0 l 257
 129.984375 516 l 257
 251.984375 516 l 257
 161 0 l 257
152.740234375 577 m 261
 105.541992188 729 l 261
 233.541992188 729 l 261
 242.740234375 577 l 261
 152.740234375 577 l 261
EndSplineSet
EndChar

StartChar: j
Encoding: 106 106 143
GlifName: j
Width: 194
VWidth: 0
GlyphClass: 2
Flags: HW
HStem: -181 117<-23 4 -23 7 -50 4> 496 20<37 159 159 159> 556 146<77 117>
VStem: 24 146<608 648> 37 122<-38 516>
LayerCount: 2
Back
Fore
SplineSet
152.299804688 -38 m 258
 144.01171875 -85 77.0849609375 -181 -24.9150390625 -181 c 258
 -81.9150390625 -181 l 257
 -34.28515625 -64 l 257
 -7.28515625 -64 l 257
 20.8916015625 -63 29.947265625 -40 30.2998046875 -38 c 258
 127.984375 516 l 257
 249.984375 516 l 257
 152.299804688 -38 l 258
280.733398438 628 m 256
 273.680664062 588 235.038085938 556 195.038085938 556 c 256
 155.038085938 556 127.680664062 588 134.733398438 628 c 256
 141.786132812 668 180.78125 702 220.78125 702 c 256
 260.78125 702 287.786132812 668 280.733398438 628 c 256
EndSplineSet
EndChar

StartChar: k
Encoding: 107 107 144
GlifName: k
Width: 452
VWidth: 0
GlyphClass: 2
Flags: HW
HStem: 0 21<30 155 30 30 296 428 296 296> 0 21<30 155 30 30 296 428 296 296> 494 20<295 428 428 428> 678 20<30 155 155 155>
VStem: 30 125<0 698>
LayerCount: 2
Back
Fore
SplineSet
155 0 m 257
 30 0 l 257
 153.076171875 698 l 257
 278.076171875 698 l 257
 155 0 l 257
296 0 m 257
 228.31640625 257 l 257
 385.631835938 514 l 257
 518.631835938 514 l 257
 358.31640625 257 l 257
 428 0 l 257
 296 0 l 257
EndSplineSet
EndChar

StartChar: l
Encoding: 108 108 145
GlifName: l
Width: 184
VWidth: 0
GlyphClass: 2
Flags: HW
HStem: 0 21<30 161 30 30> 0 21<30 161 30 30> 678 20<30 161 161 161>
VStem: 30 131<0 698>
LayerCount: 2
Back
Fore
SplineSet
161 0 m 257
 30 0 l 257
 153.076171875 698 l 257
 284.076171875 698 l 257
 161 0 l 257
EndSplineSet
EndChar

StartChar: less
Encoding: 60 60 146
GlifName: less
Width: 414
VWidth: 0
GlyphClass: 2
Flags: HW
LayerCount: 2
Back
Fore
SplineSet
472.163085938 500 m 257
 449.241210938 370 l 257
 259.487304688 292 l 257
 420.323242188 206 l 257
 397.9296875 79 l 257
 75.4921875 258 l 257
 86.77734375 322 l 257
 472.163085938 500 l 257
EndSplineSet
EndChar

StartChar: logicalnot
Encoding: 172 172 147
GlifName: logicalnot
Width: 502
VWidth: 0
GlyphClass: 2
Flags: HW
HStem: 327 115<26 358 26 476>
VStem: 358 118<208 327 327 327>
LayerCount: 2
Back
Fore
SplineSet
512.67578125 208 m 257
 394.67578125 208 l 257
 415.659179688 327 l 257
 83.6591796875 327 l 257
 103.936523438 442 l 257
 553.936523438 442 l 257
 512.67578125 208 l 257
EndSplineSet
EndChar

StartChar: lslash
Encoding: 281 322 148
GlifName: lslash
Width: 424
VWidth: 0
GlyphClass: 2
Flags: HW
HStem: 0 21 678 20
VStem: 147 131
LayerCount: 2
Back
Fore
SplineSet
429 540 m 257
 489 452 l 257
 134.852539062 209 l 257
 79.2509765625 302 l 257
 429 540 l 257
EndSplineSet
Refer: 145 108 N 1 0 0 1 117 0 2
EndChar

StartChar: m
Encoding: 109 109 149
GlifName: m
Width: 684
VWidth: 0
GlyphClass: 2
Flags: HW
HStem: 0 21<30 154 30 30 280 404 280 280 530 530 530 654> 0 21<30 154 30 30 280 404 280 280 530 530 530 654> 398 121<174 195 189 195 189 237 237 243 441 447 488 494>
VStem: 30 124<0 372 0 377 0 401> 280 124<0 372 0 373.5> 530 124<0 372 372 373.5>
LayerCount: 2
Back
Fore
SplineSet
219.59375 372 m 257
 154 0 l 257
 30 0 l 257
 96.4755859375 377 l 258
 104.939453125 425 175.513671875 519 280.513671875 519 c 258
 286.513671875 519 l 257
 265.177734375 398 l 257
 259.177734375 398 l 258
 229.177734375 398 219.946289062 374 219.59375 372 c 257
595.59375 372 m 257
 596.123046875 375 594.177734375 398 564.177734375 398 c 258
 558.177734375 398 l 257
 579.513671875 519 l 257
 585.513671875 519 l 258
 691.513671875 519 728.41015625 422 720.475585938 377 c 258
 654 0 l 257
 530 0 l 257
 595.59375 372 l 257
280 0 m 257
 345.59375 372 l 258
 346.123046875 375 343.177734375 398 313.177734375 398 c 258
 307.177734375 398 l 257
 328.513671875 519 l 257
 334.513671875 519 l 258
 376.513671875 519 406.044921875 505 427.6953125 486 c 257
 456.221679688 506 490.513671875 519 532.513671875 519 c 258
 538.513671875 519 l 257
 517.177734375 398 l 257
 511.177734375 398 l 258
 480.177734375 398 469.946289062 374 469.59375 372 c 257
 404 0 l 257
 280 0 l 257
EndSplineSet
EndChar

StartChar: mu
Encoding: 181 181 152
GlifName: mu
Width: 468
VWidth: 0
GlyphClass: 2
Flags: HW
HStem: 0 21<26 150 26 26> 0 21<26 150 26 26> 179 121<180.5 192 187 192 187 234 234 239> 678 20<26 150 150 150 276 276 400 400> 680 20<276 400 400 400>
VStem: 26 166<179 300 179 321 179 356 179 698> 26 124<0 183 0 321 324.5 326 326 356 356 698> 276 124<326.5 328 328 698 698 700>
LayerCount: 2
Back
Fore
SplineSet
149.076171875 698 m 257
 273.076171875 698 l 257
 212.772460938 356 l 257
 207.482421875 326 l 258
 206.954101562 323 208.8984375 300 239.8984375 300 c 258
 244.8984375 300 l 257
 223.5625 179 l 257
 218.5625 179 l 258
 205.5625 179 193.739257812 180 182.267578125 183 c 257
 150 0 l 257
 26 0 l 257
 82.6005859375 321 l 257
 88.7724609375 356 l 257
 149.076171875 698 l 257
399.428710938 700 m 257
 523.428710938 700 l 257
 523.076171875 698 l 257
 457.834960938 328 l 258
 457.306640625 325 459.250976562 302 490.250976562 302 c 258
 495.250976562 302 l 257
 473.915039062 181 l 257
 468.915039062 181 l 258
 428.915039062 181 398.20703125 194 376.557617188 213 c 257
 347.03125 193 311.5625 179 270.5625 179 c 258
 265.5625 179 l 257
 286.8984375 300 l 257
 291.8984375 300 l 258
 322.8984375 300 333.129882812 324 333.482421875 326 c 258
 399.076171875 698 l 257
 399.428710938 700 l 257
EndSplineSet
EndChar

StartChar: multiply
Encoding: 215 215 153
GlifName: multiply
Width: 697
VWidth: 0
GlyphClass: 2
Flags: HW
LayerCount: 2
Back
Fore
SplineSet
333.528320312 417 m 257
 201.916992188 578 l 257
 306.610351562 667 l 257
 438.397460938 507 l 257
 625.43359375 666 l 257
 698.740234375 577 l 257
 511.705078125 418 l 257
 642.668945312 259 l 257
 536.975585938 170 l 257
 406.834960938 328 l 257
 219.623046875 168 l 257
 146.31640625 257 l 257
 333.528320312 417 l 257
EndSplineSet
EndChar

StartChar: n
Encoding: 110 110 154
GlifName: n
Width: 434
VWidth: 0
GlyphClass: 2
Flags: HW
HStem: 0 21<30 154 30 30 280 404 280 280> 0 21<30 154 30 30 280 404 280 280> 398 121<175.5 196 191 196 238 243 191 238>
VStem: 30 124<0 372 0 377 0 401> 280 124<0 372 372 373.5>
LayerCount: 2
Back
Fore
SplineSet
345.59375 372 m 257
 346.123046875 375 343.177734375 398 313.177734375 398 c 258
 308.177734375 398 l 257
 329.513671875 519 l 257
 334.513671875 519 l 258
 441.513671875 519 478.41015625 422 470.475585938 377 c 258
 404 0 l 257
 280 0 l 257
 345.59375 372 l 257
219.59375 372 m 257
 154 0 l 257
 30 0 l 257
 96.4755859375 377 l 258
 104.939453125 425 175.513671875 519 282.513671875 519 c 258
 287.513671875 519 l 257
 266.177734375 398 l 257
 261.177734375 398 l 258
 230.177734375 398 219.946289062 374 219.59375 372 c 257
EndSplineSet
EndChar

StartChar: nine
Encoding: 57 57 155
GlifName: nine
Width: 504
VWidth: 0
GlyphClass: 2
Flags: HW
HStem: 1 126<179 218> 274 118<156 273 272 273 272 287> 576 124<218 218>
VStem: 26 119<450 515.5 450 547.5> 349 129<282.5 300>
LayerCount: 2
Back
Fore
SplineSet
266.313476562 274 m 257
 142.313476562 274 89.3017578125 359 111.518554688 485 c 256
 133.559570312 610 240.252929688 699 341.428710938 700 c 257
 319.564453125 576 l 257
 283.859375 572 240.216796875 540 231.576171875 491 c 256
 217.118164062 409 267.649414062 395 285.767578125 390 c 257
 266.313476562 274 l 257
173.385742188 178 m 257
 190.44921875 150 198.275390625 132 240.393554688 127 c 257
 218.176757812 1 l 257
 140.176757812 1 84.9931640625 51 63.27734375 115 c 257
 173.385742188 178 l 257
272.352539062 2 m 257
 294.393554688 127 l 257
 369.038085938 142 392.729492188 248 401.8984375 300 c 257
 380.252929688 285 350.313476562 274 320.313476562 274 c 257
 341.120117188 392 l 257
 342.120117188 392 l 256
 363.001953125 397 412.823242188 413 426.400390625 490 c 256
 433.27734375 529 410.682617188 571 373.387695312 575 c 257
 395.428710938 700 l 257
 570.428710938 700 568.456054688 513 538.127929688 341 c 256
 517.497070312 224 445.057617188 6 272.352539062 2 c 257
EndSplineSet
EndChar

StartChar: numbersign
Encoding: 35 35 157
GlifName: numbersign
Width: 888
VWidth: 0
GlyphClass: 2
Flags: HW
HStem: 176 121<126 241 101 263 126 362 126 383 126 467> 404 121<157 281 135 303 157 402 157 507>
LayerCount: 2
Back
Fore
SplineSet
338.87890625 22 m 257
 217.87890625 22 l 257
 272.033203125 176 l 257
 132.033203125 176 l 257
 178.369140625 297 l 257
 315.369140625 297 l 257
 352.236328125 404 l 257
 206.236328125 404 l 257
 249.571289062 525 l 257
 395.571289062 525 l 257
 450.254882812 682 l 257
 571.254882812 682 l 257
 515.395507812 524 l 257
 621.395507812 524 l 257
 676.254882812 682 l 257
 797.254882812 682 l 257
 741.395507812 524 l 257
 879.395507812 524 l 257
 839.059570312 403 l 257
 699.236328125 404 l 257
 661.192382812 296 l 257
 804.192382812 296 l 257
 764.857421875 175 l 257
 619.033203125 176 l 257
 564.87890625 22 l 257
 444.87890625 22 l 257
 498.033203125 176 l 257
 393.033203125 176 l 257
 338.87890625 22 l 257
578.236328125 404 m 257
 473.236328125 404 l 257
 435.369140625 297 l 257
 541.192382812 296 l 257
 578.236328125 404 l 257
EndSplineSet
EndChar

StartChar: o
Encoding: 111 111 158
GlifName: o
Width: 420
VWidth: 0
GlyphClass: 2
Flags: HW
HStem: -1 118<132 192 186 192 186 233 233 239> 398 118<169.5 192 186 192 233 239 186 233>
VStem: 28 120<144.5 154 154 363> 275 117<152 363 363 371.5>
LayerCount: 2
Back
Fore
SplineSet
94.298828125 376 m 258
 102.233398438 421 169.984375 516 276.984375 516 c 258
 282.984375 516 l 257
 262.177734375 398 l 257
 256.177734375 398 l 258
 223.177734375 398 213.76953125 373 212.006835938 363 c 257
 175.154296875 154 l 257
 171.803710938 135 176.629882812 117 206.629882812 117 c 258
 212.629882812 117 l 257
 191.823242188 -1 l 257
 185.823242188 -1 l 258
 77.8232421875 -1 45.103515625 97 52.8623046875 141 c 258
 94.298828125 376 l 258
303.177734375 398 m 257
 323.984375 516 l 257
 329.984375 516 l 258
 432.984375 516 466.233398438 421 458.298828125 376 c 258
 416.862304688 141 l 258
 408.927734375 96 342.823242188 -1 238.823242188 -1 c 258
 232.823242188 -1 l 257
 253.629882812 117 l 257
 259.629882812 117 l 258
 290.806640625 118 299.862304688 141 301.801757812 152 c 257
 339.006835938 363 l 257
 342.00390625 380 339.177734375 398 309.177734375 398 c 258
 303.177734375 398 l 257
EndSplineSet
EndChar

StartChar: oe
Encoding: 283 339 162
GlifName: oe
Width: 671
VWidth: 0
GlyphClass: 2
Flags: HW
HStem: -1 114<130 190 184 190 231 237 184 231> 208 116<395 530 395 644 395 530> 398 118<167.5 190 184 190 231 237 184 231>
VStem: 26 120<141 142 142 373> 273 122<140 141 141 208 324 369> 530 114<324 369 369 378>
LayerCount: 2
Back
Fore
SplineSet
557.883789062 402 m 258
 553.883789062 402 l 257
 573.984375 516 l 257
 579.984375 516 l 258
 649.984375 516 723.346679688 450 710.651367188 378 c 258
 680.67578125 208 l 257
 431.67578125 208 l 257
 419.862304688 141 l 258
 419.333007812 138 421.219726562 109 449.04296875 108 c 258
 508.04296875 108 l 258
 538.04296875 108 564.275390625 132 571.978515625 153 c 258
 573.68359375 157 l 257
 666.159179688 120 l 257
 664.806640625 118 l 257
 638.521484375 54 559 0 489 0 c 258
 430 0 l 258
 390 0 361.46875 14 339.995117188 34 c 257
 312.46875 14 276.823242188 -1 236.823242188 -1 c 258
 230.823242188 -1 l 257
 250.924804688 113 l 257
 256.924804688 113 l 258
 288.1015625 114 297.333007812 138 297.685546875 140 c 258
 338.59375 372 l 258
 339.123046875 375 337.177734375 398 307.177734375 398 c 258
 301.177734375 398 l 257
 321.984375 516 l 257
 327.984375 516 l 258
 367.984375 516 397.516601562 502 417.989257812 482 c 257
 446.516601562 502 480.984375 516 519.984375 516 c 258
 524.984375 516 l 257
 504.53125 400 l 257
 501.53125 400 l 258
 472.53125 400 462.00390625 380 460.064453125 369 c 258
 452.129882812 324 l 257
 587.129882812 324 l 257
 595.064453125 369 l 258
 599.825195312 396 577.883789062 402 557.883789062 402 c 258
92.298828125 376 m 258
 100.233398438 421 167.984375 516 274.984375 516 c 258
 280.984375 516 l 257
 260.177734375 398 l 257
 254.177734375 398 l 258
 221.177734375 398 211.946289062 374 211.76953125 373 c 258
 171.038085938 142 l 258
 170.509765625 139 173.924804688 113 203.924804688 113 c 258
 209.924804688 113 l 257
 189.823242188 -1 l 257
 183.823242188 -1 l 258
 75.8232421875 -1 43.103515625 97 50.8623046875 141 c 258
 92.298828125 376 l 258
EndSplineSet
EndChar

StartChar: one
Encoding: 49 49 164
GlifName: one
Width: 266
VWidth: 0
GlyphClass: 2
Flags: HW
HStem: 0 21<106 236 106 106> 0 21<106 236 106 106> 679 20<106 236 236 236> 679 20<106 236 236 236>
VStem: 30 206<439 640 640 640> 106 130<0 499 499 499 0 699>
LayerCount: 2
Back
Fore
SplineSet
193.987304688 499 m 257
 107.407226562 439 l 257
 142.849609375 640 l 257
 229.252929688 699 l 257
 359.252929688 699 l 257
 236 0 l 257
 106 0 l 257
 193.987304688 499 l 257
EndSplineSet
EndChar

StartChar: onehalf
Encoding: 189 189 165
GlifName: onehalf
Width: 581
VWidth: 0
GlyphClass: 2
Flags: HW
HStem: -1 66<346 551 346 551> 288 66<422 424 422 424 448 449 424 448> 682 20<114 182 182 182 458 534 534 534>
VStem: 76 106<567 671 671 671> 114 68<349 597 597 597 349 702> 490 64<235.5 251 224 263>
LayerCount: 2
Back
Fore
SplineSet
472.782226562 288 m 258
 470.60546875 287 449.018554688 278 444.08203125 250 c 258
 443.729492188 248 l 257
 383.021484375 261 l 257
 384.374023438 263 l 257
 396.956054688 306 435.185546875 347 484.243164062 353 c 257
 486.419921875 354 l 257
 475.134765625 290 l 257
 474.782226562 288 l 257
 472.782226562 288 l 258
25.6474609375 -2 m 257
 581.78125 702 l 257
 657.78125 702 l 257
 108.647460938 -2 l 257
 25.6474609375 -2 l 257
562.4609375 65 m 257
 550.823242188 -1 l 257
 345.823242188 -1 l 257
 357.4609375 65 l 257
 562.4609375 65 l 257
498.782226562 288 m 257
 510.419921875 354 l 257
 515.419921875 354 l 258
 593.419921875 354 604.134765625 290 598.2578125 251 c 256
 588.736328125 197 560.739257812 180 527.036132812 159 c 256
 487.627929688 134 465.983398438 119 444.3984375 93 c 257
 443.221679688 92 l 257
 364.221679688 92 l 257
 365.575195312 94 l 258
 406.506835938 156 461.444335938 184 478.560546875 196 c 256
 504.91015625 215 528.791992188 220 534.2578125 251 c 256
 538.490234375 275 526.60546875 287 499.782226562 288 c 258
 498.782226562 288 l 257
219.267578125 597 m 257
 175.977539062 567 l 257
 194.315429688 671 l 257
 237.78125 702 l 257
 305.78125 702 l 257
 243.538085938 349 l 257
 175.538085938 349 l 257
 219.267578125 597 l 257
EndSplineSet
EndChar

StartChar: onequarter
Encoding: 188 188 166
GlifName: onequarter
Width: 560
VWidth: 0
GlyphClass: 2
Flags: HW
HStem: -1 21<393 461 393 393> -1 21<393 461 393 393> 71 66<346 368 270 270 461 488> 682 20<114 181 181 181 458 534 534 534>
VStem: 75 106<567 671 671 671> 113 68<349 597 597 597> 270 98<71 137 71 137> 393 95<71 137 71 352> 393 68<-1 71 -1 137 137 352>
LayerCount: 2
Back
Fore
SplineSet
218.267578125 597 m 257
 174.977539062 567 l 257
 193.315429688 671 l 257
 237.78125 702 l 257
 304.78125 702 l 257
 242.538085938 349 l 257
 174.538085938 349 l 257
 218.267578125 597 l 257
512.157226562 137 m 257
 500.51953125 71 l 257
 473.51953125 71 l 257
 460.823242188 -1 l 257
 392.823242188 -1 l 257
 455.067382812 352 l 257
 523.067382812 352 l 257
 485.157226562 137 l 257
 512.157226562 137 l 257
392.157226562 137 m 257
 380.51953125 71 l 257
 282.51953125 71 l 257
 294.157226562 137 l 257
 421.779296875 305 l 257
 398.857421875 175 l 257
 370.157226562 137 l 257
 392.157226562 137 l 257
25.6474609375 -2 m 257
 581.78125 702 l 257
 657.78125 702 l 257
 108.647460938 -2 l 257
 25.6474609375 -2 l 257
EndSplineSet
EndChar

StartChar: ordfeminine
Encoding: 170 170 167
GlifName: ordfeminine
Width: 227
VWidth: 0
GlyphClass: 2
Flags: HW
LayerCount: 2
Back
Fore
SplineSet
101.8203125 430 m 257
 276.8203125 430 l 257
 264.830078125 362 l 257
 89.830078125 362 l 257
 101.8203125 430 l 257
210.436523438 649 m 258
 201.259765625 648 193.377929688 643 190.556640625 627 c 258
 189.8515625 623 l 257
 144.202148438 642 l 257
 144.5546875 644 l 258
 150.197265625 676 188.60546875 701 219.60546875 701 c 258
 222.60546875 701 l 257
 213.436523438 649 l 257
 210.436523438 649 l 258
239.60546875 701 m 257
 242.60546875 701 l 258
 288.60546875 701 304.19921875 659 300.672851562 639 c 258
 282.334960938 535 l 258
 281.982421875 533 281.21875 523 289.21875 523 c 258
 292.21875 523 l 257
 283.049804688 471 l 257
 280.049804688 471 l 258
 264.049804688 471 251.931640625 476 244.166015625 483 c 257
 231.754882812 475 219.049804688 471 203.049804688 471 c 258
 200.049804688 471 l 257
 209.21875 523 l 257
 212.21875 523 l 258
 224.21875 523 228.51171875 536 228.6875 537 c 258
 234.330078125 569 l 257
 213.56640625 559 182.685546875 554 176.15625 551 c 256
 173.979492188 550 171.451171875 547 170.745117188 543 c 258
 169.6875 537 l 258
 168.27734375 529 170.21875 523 181.21875 523 c 258
 191.21875 523 l 257
 182.049804688 471 l 257
 180.049804688 471 l 258
 137.049804688 471 115.10546875 494 119.690429688 520 c 258
 125.15625 551 l 258
 127.80078125 566 132.387695312 575 153.327148438 586 c 256
 175.443359375 598 241.559570312 610 244.380859375 626 c 258
 245.262695312 631 l 258
 247.025390625 641 247.259765625 648 233.436523438 649 c 258
 230.612304688 650 l 257
 239.60546875 701 l 257
EndSplineSet
EndChar

StartChar: ordmasculine
Encoding: 186 186 168
GlifName: ordmasculine
Width: 230
VWidth: 0
GlyphClass: 2
Flags: HW
HStem: 361 71<26 204 26 204> 470 55<78.5 108 103 108 103 127 103 123> 645 55<96.5 108 103 108 103 123 123 127>
VStem: 32 56<533.5 534 534 635> 141 55<533 635 635 635.5>
LayerCount: 2
Back
Fore
SplineSet
102.172851562 432 m 257
 280.172851562 432 l 257
 267.654296875 361 l 257
 89.654296875 361 l 257
 102.172851562 432 l 257
236.73046875 645 m 257
 246.428710938 700 l 257
 250.428710938 700 l 258
 296.428710938 700 312.0234375 658 308.3203125 637 c 258
 289.982421875 533 l 258
 286.456054688 513 256.874023438 470 209.874023438 470 c 258
 205.874023438 470 l 257
 215.21875 523 l 257
 219.21875 523 l 258
 231.21875 523 234.805664062 532 234.982421875 533 c 258
 252.967773438 635 l 258
 253.143554688 636 252.73046875 645 240.73046875 645 c 258
 236.73046875 645 l 257
144.3203125 637 m 258
 148.0234375 658 178.428710938 700 226.428710938 700 c 258
 231.428710938 700 l 257
 221.73046875 645 l 257
 216.73046875 645 l 258
 203.73046875 645 200.143554688 636 199.967773438 635 c 258
 182.158203125 534 l 258
 181.982421875 533 183.571289062 525 195.571289062 525 c 258
 200.571289062 525 l 257
 190.874023438 470 l 257
 185.874023438 470 l 258
 136.874023438 470 122.456054688 513 125.982421875 533 c 258
 144.3203125 637 l 258
EndSplineSet
EndChar

StartChar: oslash
Encoding: 248 248 169
GlifName: oslash
Width: 498
VWidth: 0
GlyphClass: 2
Flags: HW
HStem: -1 118<195 231 225 231 272 278 225 272> 398 118<208.5 231 225 231 225 272 272 278>
VStem: 67 120<253 363 253 376 253 398.5> 314 117<152 261 261 261>
LayerCount: 2
Back
Fore
SplineSet
531.400390625 490 m 257
 573.8203125 430 l 257
 496.064453125 369 l 257
 455.862304688 141 l 258
 447.927734375 96 381.823242188 -1 277.823242188 -1 c 258
 271.823242188 -1 l 257
 292.629882812 117 l 257
 298.629882812 117 l 258
 329.806640625 118 338.862304688 141 340.801757812 152 c 258
 360.021484375 261 l 257
 213.567382812 145 l 257
 212.922851562 130 220.629882812 117 245.629882812 117 c 258
 251.629882812 117 l 257
 230.823242188 -1 l 257
 224.823242188 -1 l 258
 164.823242188 -1 128.11328125 29 109.108398438 63 c 257
 56.87890625 22 l 257
 14.458984375 82 l 257
 92.21484375 143 l 257
 133.298828125 376 l 258
 141.233398438 421 208.984375 516 315.984375 516 c 258
 321.984375 516 l 257
 301.177734375 398 l 257
 295.177734375 398 l 258
 262.177734375 398 252.76953125 373 251.006835938 363 c 258
 231.610351562 253 l 257
 379.241210938 370 l 257
 379.709960938 384 374.177734375 398 348.177734375 398 c 258
 342.177734375 398 l 257
 362.984375 516 l 257
 368.984375 516 l 258
 426.984375 516 463.6953125 486 481.5234375 451 c 257
 531.400390625 490 l 257
EndSplineSet
EndChar

StartChar: p
Encoding: 112 112 171
GlifName: p
Width: 422
VWidth: 0
GlyphClass: 2
Flags: HW
HStem: 0 118<203 232 203 234> 398 118<196 228 30 196>
VStem: 30 125<-182 516 -182 516> 276 120<143 372 372 375>
LayerCount: 2
Back
Fore
SplineSet
232 0 m 258
 203 0 l 257
 223.806640625 118 l 257
 254.806640625 118 l 257
 291.983398438 119 299.627929688 134 301.21484375 143 c 258
 341.59375 372 l 257
 343.885742188 385 328.177734375 398 298.177734375 398 c 258
 266.177734375 398 l 257
 286.984375 516 l 257
 318.984375 516 l 258
 425.984375 516 471.997070312 431 462.123046875 375 c 258
 420.509765625 139 l 257
 411.1640625 86 345 0 232 0 c 258
120.984375 516 m 257
 245.984375 516 l 257
 122.908203125 -182 l 257
 -2.091796875 -182 l 257
 120.984375 516 l 257
EndSplineSet
EndChar

StartChar: paragraph
Encoding: 182 182 172
GlifName: paragraph
Width: 444
VWidth: 0
GlyphClass: 2
Flags: HW
LayerCount: 2
Back
Fore
SplineSet
402.310546875 705 m 257
 277.118164062 -5 l 257
 194.118164062 -5 l 257
 253.01171875 329 l 257
 149.01171875 329 97.0595703125 403 117.161132812 517 c 256
 134.793945312 617 217.310546875 705 319.310546875 705 c 256
 347.310546875 705 374.310546875 705 402.310546875 705 c 257
542.310546875 705 m 257
 417.118164062 -5 l 257
 334.118164062 -5 l 257
 459.310546875 705 l 257
 542.310546875 705 l 257
EndSplineSet
EndChar

StartChar: parenleft
Encoding: 40 40 173
GlifName: parenleft
Width: 262
VWidth: 0
GlyphClass: 2
Flags: HW
LayerCount: 2
Back
Fore
SplineSet
341.600585938 735 m 257
 327.259765625 648 l 257
 284.204101562 625 258.561523438 593 244.866210938 521 c 258
 189.67578125 208 l 258
 189.323242188 206 188.970703125 204 188.618164062 202 c 256
 171.337890625 104 190.872070312 73 221.993164062 51 c 257
 206.475585938 -37 l 257
 74.87890625 22 66.3984375 93 83.326171875 189 c 257
 139.926757812 510 l 257
 164.96484375 652 235.723632812 696 341.600585938 735 c 257
EndSplineSet
EndChar

StartChar: parenright
Encoding: 41 41 174
GlifName: parenright
Width: 330
VWidth: 0
GlyphClass: 2
Flags: HW
VStem: 161 119<202 208 208 510>
LayerCount: 2
Back
Fore
SplineSet
232.540039062 746 m 257
 333.487304688 706 394.612304688 650 369.926757812 510 c 257
 313.326171875 189 l 257
 296.3984375 93 244.586914062 9 92.712890625 -47 c 257
 109.993164062 51 l 257
 148.872070312 73 179.337890625 104 196.618164062 202 c 256
 196.970703125 204 197.323242188 206 197.67578125 208 c 258
 252.866210938 521 l 258
 264.561523438 593 249.380859375 626 214.436523438 649 c 257
 232.540039062 746 l 257
EndSplineSet
EndChar

StartChar: period
Encoding: 46 46 175
GlifName: period
Width: 250
VWidth: 0
GlyphClass: 2
Flags: HW
LayerCount: 2
Back
Fore
SplineSet
59.345703125 53 m 256
 66.7509765625 95 105.74609375 129 147.74609375 129 c 256
 189.74609375 129 216.750976562 95 209.345703125 53 c 256
 201.939453125 11 163.12109375 -22 121.12109375 -22 c 256
 79.12109375 -22 51.939453125 11 59.345703125 53 c 256
EndSplineSet
EndChar

StartChar: perthousand
Encoding: 284 8240 177
GlifName: perthousand
Width: 897
VWidth: 0
GlyphClass: 2
Flags: HW
HStem: 0 65<487 489 488 489 488 489 488 517 517 518 488 519 746 747 775 776> 287 65<488 490 488 490 516 518 488 516 746 748 774 776> 680 20<497 570 570 570>
VStem: 26 68<499 522 522 551 499 592> 178 68<522 551 551 567> 393 68<148 171 171 201 148 242> 546 68<171 201 201 217> 651 68<148 171 171 201 148 242> 804 68<171 201 201 217>
LayerCount: 2
Back
Fore
SplineSet
67 0 m 257
 620.428710938 700 l 257
 693.428710938 700 l 257
 147 0 l 257
 67 0 l 257
274.78125 702 m 257
 320.252929688 699 361.846679688 657 339.100585938 528 c 256
 312.651367188 378 248.243164062 353 213.890625 351 c 257
 211.71484375 350 l 257
 223.17578125 415 l 257
 224.17578125 415 l 257
 251.233398438 421 261.931640625 476 270.04296875 522 c 258
 275.15625 551 l 258
 280.798828125 583 287.262695312 631 263.3203125 637 c 257
 262.3203125 637 l 257
 273.958007812 703 l 257
 274.78125 702 l 257
245.958007812 703 m 257
 234.3203125 637 l 257
 233.3203125 637 l 257
 207.262695312 631 196.798828125 583 191.15625 551 c 258
 186.04296875 522 l 258
 177.931640625 476 169.233398438 421 194.17578125 415 c 257
 195.17578125 415 l 257
 183.71484375 350 l 257
 181.890625 351 l 257
 148.243164062 353 92.6513671875 378 119.100585938 528 c 256
 141.670898438 656 198.252929688 699 244.78125 702 c 257
 245.958007812 703 l 257
580.067382812 352 m 258
 625.538085938 349 668.1328125 307 645.385742188 178 c 256
 618.9375 28 553.352539062 2 519 0 c 258
 517 0 l 257
 528.4609375 65 l 257
 529.4609375 65 l 257
 556.51953125 71 568.041015625 125 576.15234375 171 c 258
 581.44140625 201 l 258
 587.083984375 233 592.547851562 281 568.60546875 287 c 257
 566.60546875 287 l 257
 578.067382812 352 l 257
 580.067382812 352 l 258
552.067382812 352 m 257
 540.60546875 287 l 257
 538.60546875 287 l 257
 512.547851562 281 502.083984375 233 496.44140625 201 c 258
 491.15234375 171 l 258
 483.041015625 125 474.51953125 71 499.4609375 65 c 257
 500.4609375 65 l 257
 489 0 l 257
 487 0 l 258
 453.352539062 2 397.9375 28 424.385742188 178 c 256
 446.956054688 306 503.538085938 349 550.067382812 352 c 258
 552.067382812 352 l 257
838.067382812 352 m 258
 883.538085938 349 926.1328125 307 903.385742188 178 c 256
 876.9375 28 811.352539062 2 777 0 c 258
 775 0 l 257
 786.4609375 65 l 257
 787.4609375 65 l 257
 814.51953125 71 826.041015625 125 834.15234375 171 c 258
 839.44140625 201 l 258
 845.083984375 233 850.547851562 281 826.60546875 287 c 257
 824.60546875 287 l 257
 836.067382812 352 l 257
 838.067382812 352 l 258
810.067382812 352 m 257
 798.60546875 287 l 257
 796.60546875 287 l 257
 770.547851562 281 760.083984375 233 754.44140625 201 c 258
 749.15234375 171 l 258
 741.041015625 125 732.51953125 71 757.4609375 65 c 257
 758.4609375 65 l 257
 747 0 l 257
 745 0 l 258
 711.352539062 2 655.9375 28 682.385742188 178 c 256
 704.956054688 306 761.538085938 349 808.067382812 352 c 258
 810.067382812 352 l 257
EndSplineSet
EndChar

StartChar: plus
Encoding: 43 43 178
GlifName: plus
Width: 475
VWidth: 0
GlyphClass: 2
Flags: HW
LayerCount: 2
Back
Fore
SplineSet
487.94921875 357 m 257
 465.555664062 230 l 257
 340.555664062 230 l 257
 315.340820312 87 l 257
 188.340820312 87 l 257
 213.555664062 230 l 257
 90.5556640625 230 l 257
 112.94921875 357 l 257
 235.94921875 357 l 257
 260.810546875 498 l 257
 387.810546875 498 l 257
 362.94921875 357 l 257
 487.94921875 357 l 257
EndSplineSet
EndChar

StartChar: q
Encoding: 113 113 180
GlifName: q
Width: 416
VWidth: 0
GlyphClass: 2
Flags: HW
HStem: 0 118<188 190 190 219> 398 118<167 214 183 214>
VStem: 26 120<142 143 143 373> 262 124<-182 -182>
LayerCount: 2
Back
Fore
SplineSet
171.21484375 143 m 258
 170.862304688 141 170.983398438 119 208.806640625 118 c 258
 239.806640625 118 l 257
 219 0 l 257
 190 0 l 258
 77 0 43.3984375 93 50.509765625 139 c 257
 92.123046875 375 l 258
 100.057617188 420 166.984375 516 273.984375 516 c 258
 304.984375 516 l 257
 284.177734375 398 l 257
 253.177734375 398 l 258
 221.177734375 398 212.123046875 375 211.76953125 373 c 257
 171.21484375 143 l 258
475.984375 516 m 257
 353.908203125 -182 l 257
 229.908203125 -182 l 257
 351.984375 516 l 257
 475.984375 516 l 257
EndSplineSet
EndChar

StartChar: question
Encoding: 63 63 181
GlifName: question
Width: 460
VWidth: 0
GlyphClass: 2
Flags: HW
HStem: -22 151<176 218> 166 220<134 263 134 134> 575 128<188.5 233.5>
VStem: 122 151<32 74> 134 129<166 276 166 386 166 386> 302 128<446.5 482.5 482.5 491 385 519>
LayerCount: 2
Back
Fore
SplineSet
131.345703125 53 m 256
 138.750976562 95 177.74609375 129 219.74609375 129 c 256
 261.74609375 129 289.750976562 95 282.345703125 53 c 256
 274.939453125 11 235.12109375 -22 193.12109375 -22 c 256
 151.12109375 -22 123.939453125 11 131.345703125 53 c 256
204.748046875 526 m 257
 137.735351562 611 l 257
 174.436523438 649 233.958007812 703 341.958007812 703 c 256
 469.958007812 703 535.322265625 620 516.576171875 491 c 256
 516.047851562 488 515.341796875 484 514.813476562 481 c 256
 480.958984375 289 311.666015625 276 311.666015625 276 c 257
 292.270507812 166 l 257
 163.270507812 166 l 257
 202.0625 386 l 257
 319.415039062 388 372.53125 400 388.9296875 493 c 256
 398.098632812 545 358.387695312 575 311.387695312 575 c 256
 268.387695312 575 230.685546875 554 204.748046875 526 c 257
EndSplineSet
EndChar

StartChar: questiondown
Encoding: 191 191 182
GlifName: questiondown
Width: 460
VWidth: 0
GlyphClass: 2
Flags: HW
HStem: -14 128<188.5 233.5 188.5 283.5> 303 220<134 263> 560 151<176 218>
VStem: 122 151<615 657> 134 129<413 523 413 523 413 523> 302 128<170 242.5>
LayerCount: 2
Back
Fore
SplineSet
140.741210938 163 m 257
 156.803710938 135 187.1015625 114 230.1015625 114 c 256
 277.1015625 114 327.390625 144 336.560546875 196 c 256
 352.958984375 289 304.07421875 301 187.426757812 303 c 257
 226.21875 523 l 257
 355.21875 523 l 257
 335.823242188 413 l 257
 335.823242188 413 500.53125 400 466.67578125 208 c 256
 442.6953125 72 346.53125 -14 215.53125 -14 c 256
 107.53125 -14 67.052734375 40 43.75390625 78 c 257
 140.741210938 163 l 257
234.143554688 636 m 256
 241.549804688 678 280.368164062 711 322.368164062 711 c 256
 364.368164062 711 392.549804688 678 385.143554688 636 c 256
 377.73828125 594 337.743164062 560 295.743164062 560 c 256
 253.743164062 560 226.73828125 594 234.143554688 636 c 256
EndSplineSet
EndChar

StartChar: quotedbl
Encoding: 34 34 183
GlifName: quotedbl
Width: 407
VWidth: 0
GlyphClass: 2
Flags: HW
LayerCount: 2
Back
Fore
SplineSet
258.9921875 465 m 257
 131.9921875 465 l 257
 179.776367188 736 l 257
 306.776367188 736 l 257
 258.9921875 465 l 257
438.9921875 465 m 257
 311.9921875 465 l 257
 359.776367188 736 l 257
 486.776367188 736 l 257
 438.9921875 465 l 257
EndSplineSet
EndChar

StartChar: quotedbl.alt
Encoding: 285 -1 184
GlifName: quotedbl.alt
Width: 359
VWidth: 0
GlyphClass: 2
Flags: HW
HStem: 476 224<26 153 26 153 26 206 206 333>
VStem: 26 127<476 700> 206 127<476 700>
LayerCount: 2
Back
Fore
SplineSet
236.931640625 476 m 257
 109.931640625 476 l 257
 149.428710938 700 l 257
 276.428710938 700 l 257
 236.931640625 476 l 257
416.931640625 476 m 257
 289.931640625 476 l 257
 329.428710938 700 l 257
 456.428710938 700 l 257
 416.931640625 476 l 257
EndSplineSet
EndChar

StartChar: quotesingle
Encoding: 39 39 191
GlifName: quotesingle
Width: 227
VWidth: 0
GlyphClass: 2
Flags: HW
LayerCount: 2
Back
Fore
SplineSet
258.9921875 465 m 257
 131.9921875 465 l 257
 179.776367188 736 l 257
 306.776367188 736 l 257
 258.9921875 465 l 257
EndSplineSet
EndChar

StartChar: r
Encoding: 114 114 192
GlifName: r
Width: 316
VWidth: 0
GlyphClass: 2
Flags: HW
HStem: 0 21<36 160 36 36> 0 21<36 160 36 36> 395 121<289 289>
VStem: 36 124<0 271 454 516>
LayerCount: 2
Back
Fore
SplineSet
126.984375 516 m 257
 250.984375 516 l 257
 240.052734375 454 l 257
 265.813476562 481 319.984375 516 374.984375 516 c 258
 384.984375 516 l 261
 358.649414062 395 l 257
 291.47265625 394 218.364257812 331 207.784179688 271 c 258
 160 0 l 257
 36 0 l 257
 126.984375 516 l 257
EndSplineSet
EndChar

StartChar: registered
Encoding: 174 174 193
GlifName: registered
Width: 404
VWidth: 0
GlyphClass: 2
Flags: HW
HStem: 354 42<191 192 191 211> 511 36<206 210 210 216> 591 37<206 210 206 227> 662 41<193 195 193 195 193 240.5>
VStem: 30 40<523 567.5 526 567.5 526 587> 151 39<430 627 430 627> 234 36<562.5 575> 334 40<525 527 526.5 528 473 567.5>
LayerCount: 2
Back
Fore
SplineSet
260.825195312 396 m 257
 254.419921875 354 l 257
 173.595703125 355 106.172851562 432 122.21875 523 c 256
 122.395507812 524 122.395507812 524 122.571289062 525 c 256
 144.436523438 649 256.958007812 703 316.958007812 703 c 256
 317.958007812 703 317.958007812 703 318.958007812 703 c 257
 311.728515625 662 l 257
 252.728515625 662 177.3828125 609 162.748046875 526 c 256
 151.581054688 457 196.354492188 399 260.825195312 396 c 257
280.825195312 396 m 257
 346.354492188 399 412.405273438 456 426.571289062 525 c 256
 426.748046875 526 426.748046875 526 426.924804688 527 c 256
 441.20703125 608 386.728515625 662 327.728515625 662 c 257
 334.958007812 703 l 257
 400.78125 702 487.025390625 641 467.100585938 528 c 256
 466.748046875 526 466.571289062 525 466.21875 523 c 256
 448.5859375 423 350.94921875 357 273.419921875 354 c 257
 280.825195312 396 l 257
302.451171875 547 m 257
 306.451171875 547 l 258
 323.451171875 547 332.213867188 557 334.153320312 568 c 256
 336.622070312 582 328.208984375 591 314.208984375 591 c 258
 310.208984375 591 l 257
 316.733398438 628 l 257
 358.733398438 628 376.501953125 604 370.506835938 570 c 256
 367.15625 551 358.864257812 538 344.453125 530 c 257
 353.04296875 522 358.221679688 506 356.752929688 492 c 258
 345.997070312 431 l 257
 310.997070312 431 l 257
 319.813476562 481 l 258
 323.869140625 504 316.103515625 511 296.103515625 511 c 257
 302.451171875 547 l 257
261.556640625 627 m 257
 300.556640625 627 l 257
 265.8203125 430 l 257
 226.8203125 430 l 257
 261.556640625 627 l 257
EndSplineSet
EndChar

StartChar: ring
Encoding: 292 730 194
GlifName: ring
Width: 244
VWidth: 0
GlyphClass: 2
Flags: HW
HStem: 430 64<113 131 113 148.5> 558 64<113 131>
VStem: 26 64<517 535 517 552.5> 154 64<517 535>
LayerCount: 2
Back
Fore
SplineSet
182.748046875 526 m 256
 179.57421875 508 191.10546875 494 209.10546875 494 c 256
 227.10546875 494 243.57421875 508 246.748046875 526 c 256
 249.921875 544 238.390625 558 220.390625 558 c 256
 202.390625 558 185.921875 544 182.748046875 526 c 256
118.748046875 526 m 256
 128.09375 579 178.67578125 622 231.67578125 622 c 256
 284.67578125 622 320.09375 579 310.748046875 526 c 256
 301.40234375 473 250.8203125 430 197.8203125 430 c 256
 144.8203125 430 109.40234375 473 118.748046875 526 c 256
EndSplineSet
EndChar

StartChar: s
Encoding: 115 115 195
GlifName: s
Width: 418
VWidth: 0
GlyphClass: 2
Flags: HW
HStem: 404 113<224 226 179 223>
VStem: 26 112<353 369.5 353 422> 280 117<136.5 175.5>
LayerCount: 2
Back
Fore
SplineSet
45.6279296875 134 m 256
 44.98046875 136 l 257
 160.68359375 157 l 257
 160.154296875 154 l 258
 158.803710938 135 176.924804688 113 200.572265625 111 c 256
 203.395507812 110 l 257
 183.118164062 -5 l 257
 180.118164062 -5 l 258
 86.1181640625 -5 37.3427734375 70 45.6279296875 134 c 256
454.298828125 376 m 258
 453.946289062 374 l 257
 338.595703125 355 l 257
 339.125 358 l 256
 342.354492188 399 305.236328125 404 297.236328125 404 c 258
 294.236328125 404 l 257
 315.161132812 517 l 257
 318.161132812 517 l 258
 412.161132812 517 465.583984375 440 454.298828125 376 c 258
253.588867188 406 m 257
 251.588867188 406 l 256
 210.883789062 402 204.475585938 377 201.830078125 362 c 256
 198.65625 344 209.954101562 323 346.192382812 296 c 256
 396.4296875 286 439.84765625 243 425.211914062 160 c 256
 407.05078125 57 320.118164062 -5 227.118164062 -5 c 258
 224.118164062 -5 l 257
 244.219726562 109 l 257
 247.219726562 109 l 258
 262.395507812 110 301.159179688 120 306.978515625 153 c 256
 314.913085938 198 204.323242188 206 151.908203125 232 c 256
 107.139648438 256 76.60546875 287 91.4169921875 371 c 256
 109.40234375 473 216.161132812 517 270.161132812 517 c 258
 273.161132812 517 l 257
 253.588867188 406 l 257
EndSplineSet
EndChar

StartChar: section
Encoding: 167 167 197
GlifName: section
Width: 547
VWidth: 0
GlyphClass: 2
Flags: HW
HStem: -136 132<170 274 274 282 170 274> 627 132<265 273 273 377>
VStem: 26 141<335.5 368.5 335.5 382> 88 131<565.5 591 565.5 640.5> 328 131<32 57.5> 380 141<254.5 288>
LayerCount: 2
Back
Fore
SplineSet
402.321289062 223 m 257
 413.731445312 231 422.84765625 243 426.903320312 266 c 256
 434.661132812 310 401.716796875 333 361.890625 351 c 257
 387.810546875 498 l 257
 416.518554688 485 448.40234375 473 473.581054688 457 c 256
 528.233398438 421 586.946289062 374 568.9609375 272 c 256
 558.028320312 210 520.859375 158 470.864257812 124 c 257
 474.337890625 104 473.106445312 80 468.168945312 52 c 256
 443.659179688 -87 326.01953125 -136 258.01953125 -136 c 258
 146.01953125 -136 l 257
 169.294921875 -4 l 257
 273.294921875 -4 l 258
 306.294921875 -4 330.998046875 17 336.287109375 47 c 256
 339.990234375 68 331.811523438 84 317.103515625 97 c 257
 344.434570312 252 l 257
 356.552734375 247 367.670898438 242 377.7890625 237 c 256
 385.908203125 232 394.202148438 228 402.321289062 223 c 257
398.83203125 759 m 258
 510.83203125 759 l 257
 487.556640625 627 l 257
 383.556640625 627 l 258
 350.556640625 627 325.854492188 606 320.564453125 576 c 256
 316.861328125 555 325.216796875 540 338.924804688 527 c 257
 311.59375 372 l 257
 299.475585938 377 288.180664062 381 279.0625 386 c 256
 270.944335938 391 262.649414062 395 254.53125 400 c 257
 243.120117188 392 234.00390625 380 229.94921875 357 c 256
 222.366210938 314 255.134765625 290 293.9609375 272 c 257
 268.041015625 125 l 257
 239.333007812 138 207.44921875 150 183.270507812 166 c 256
 128.618164062 202 69.9052734375 249 87.890625 351 c 256
 98.8232421875 413 135.9921875 465 185.987304688 499 c 257
 182.513671875 519 183.745117188 543 188.682617188 571 c 256
 213.192382812 710 330.83203125 759 398.83203125 759 c 258
EndSplineSet
EndChar

StartChar: semicolon
Encoding: 59 59 198
GlifName: semicolon
Width: 291
VWidth: 0
GlyphClass: 2
Flags: HW
HStem: -23 152<87 177 50 214> 285 151<145 187>
VStem: 91 150<339 381>
LayerCount: 2
Back
Fore
SplineSet
154.477539062 360 m 256
 161.883789062 402 200.87890625 436 242.87890625 436 c 256
 284.87890625 436 311.883789062 402 304.477539062 360 c 256
 297.072265625 318 258.252929688 285 216.252929688 285 c 256
 174.252929688 285 147.072265625 318 154.477539062 360 c 256
172.944335938 -23 m 257
 45.9443359375 -23 l 257
 109.74609375 129 l 257
 236.74609375 129 l 257
 172.944335938 -23 l 257
EndSplineSet
EndChar

StartChar: seven
Encoding: 55 55 199
GlifName: seven
Width: 435
VWidth: 0
GlyphClass: 2
Flags: HW
HStem: 0 21<136 273 136 136> 0 21<136 273 136 136> 510 188<236 371 236 236> 572 126<20 260 20 409>
LayerCount: 2
Back
Fore
SplineSet
143.076171875 698 m 257
 532.076171875 698 l 257
 510.03515625 573 l 257
 496.095703125 562 471.27734375 529 460.926757812 510 c 257
 325.926757812 510 l 257
 360.859375 572 l 257
 120.859375 572 l 257
 143.076171875 698 l 257
302.346679688 450 m 257
 435.346679688 450 l 257
 369.8984375 300 316.154296875 154 273 0 c 257
 136 0 l 257
 180.859375 158 233.016601562 295 302.346679688 450 c 257
EndSplineSet
EndChar

StartChar: six
Encoding: 54 54 200
GlifName: six
Width: 497
VWidth: 0
GlyphClass: 2
Flags: HW
HStem: -1 125<140.5 228 228 282> 307 118<227 228 227 227> 573 125<282 293 282 284>
VStem: 26 124<399 416.5> 356 115<183.5 249>
LayerCount: 2
Back
Fore
SplineSet
356.939453125 425 m 257
 480.939453125 425 528.659179688 327 507.852539062 209 c 256
 485.811523438 84 383 0 281.823242188 -1 c 257
 303.688476562 123 l 257
 339.393554688 127 384.036132812 159 392.67578125 208 c 256
 407.134765625 290 355.603515625 304 337.485351562 309 c 257
 356.939453125 425 l 257
449.6875 537 m 257
 437.56640625 559 422.03515625 573 394.03515625 573 c 256
 390.03515625 573 387.03515625 573 383.03515625 573 c 257
 405.076171875 698 l 257
 483.076171875 698 531.19921875 659 555.795898438 600 c 257
 449.6875 537 l 257
350.900390625 697 m 257
 328.859375 572 l 257
 264.625 565 228.994140625 448 220.354492188 399 c 257
 241.999023438 414 272.939453125 425 302.939453125 425 c 257
 282.1328125 307 l 257
 281.1328125 307 l 256
 260.250976562 302 210.4296875 286 196.852539062 209 c 256
 189.975585938 170 212.5703125 128 249.864257812 124 c 257
 227.823242188 -1 l 257
 52.8232421875 -1 58.796875 186 89.125 358 c 256
 109.754882812 475 174.020507812 675 350.900390625 697 c 257
EndSplineSet
EndChar

StartChar: slash
Encoding: 47 47 201
GlifName: slash
Width: 401
VWidth: 0
GlyphClass: 2
Flags: HW
LayerCount: 2
Back
Fore
SplineSet
45.9443359375 -23 m 261
 351.25 716 l 261
 477.25 716 l 261
 172.944335938 -23 l 261
 45.9443359375 -23 l 261
EndSplineSet
EndChar

StartChar: sterling
Encoding: 163 163 203
GlifName: sterling
Width: 520
VWidth: 0
GlyphClass: 2
Flags: HW
HStem: 0 108<238 462 238 462> 289 107<239 378 239 378 238 378> 584 121<291 293 293 307 291 319>
VStem: 106 132<108 288 288 288 108 514>
LayerCount: 2
Back
Fore
SplineSet
462.690429688 520 m 257
 458.15625 551 443.974609375 584 399.974609375 584 c 256
 367.974609375 584 339.153320312 568 330.161132812 517 c 258
 308.825195312 396 l 257
 447.825195312 396 l 257
 428.958984375 289 l 257
 288.958984375 289 l 257
 257.04296875 108 l 257
 481.04296875 108 l 257
 462 0 l 257
 106 0 l 257
 156.782226562 288 l 257
 100.782226562 288 l 257
 119.649414062 395 l 257
 175.649414062 395 l 257
 196.631835938 514 l 258
 214.793945312 617 285.310546875 705 415.310546875 705 c 256
 416.310546875 705 416.310546875 705 417.310546875 705 c 256
 445.310546875 705 468.428710938 700 487.841796875 691 c 256
 541.786132812 668 567.969726562 618 570.506835938 570 c 257
 462.690429688 520 l 257
EndSplineSet
EndChar

StartChar: t
Encoding: 116 116 204
GlifName: t
Width: 324
VWidth: 0
GlyphClass: 2
Flags: HW
HStem: 0 125<244 271 244 298 243 271> 398 118<26 89 26 89 211 271> 680 20<89 211 211 211>
VStem: 89 122<168 398 516 700>
LayerCount: 2
Back
Fore
SplineSet
261.041015625 125 m 258
 300.041015625 125 l 257
 276 0 l 257
 238 0 l 258
 116.176757812 1 95.6376953125 66 113.623046875 168 c 258
 154.177734375 398 l 257
 91.177734375 398 l 257
 111.984375 516 l 257
 174.984375 516 l 257
 207.428710938 700 l 257
 329.428710938 700 l 257
 296.984375 516 l 257
 356.984375 516 l 257
 336.177734375 398 l 257
 276.177734375 398 l 257
 234.036132812 159 l 258
 231.567382812 145 233.216796875 126 261.041015625 125 c 258
EndSplineSet
EndChar

StartChar: thorn
Encoding: 254 254 205
GlifName: thorn
Width: 422
VWidth: 0
GlyphClass: 2
Flags: HW
HStem: 0 118<203 232 203 234> 398 118<196 228 196 228> 680 20<30 155 155 155>
VStem: 30 125<-182 700 -182 700> 276 120<143 372 372 375>
LayerCount: 2
Back
Fore
SplineSet
232 0 m 258
 203 0 l 257
 223.806640625 118 l 257
 254.806640625 118 l 258
 291.983398438 119 299.627929688 134 301.21484375 143 c 258
 341.59375 372 l 258
 343.885742188 385 328.177734375 398 298.177734375 398 c 258
 266.177734375 398 l 257
 286.984375 516 l 257
 318.984375 516 l 258
 425.984375 516 471.997070312 431 462.123046875 375 c 258
 420.509765625 139 l 258
 411.1640625 86 345 0 232 0 c 258
153.428710938 700 m 257
 278.428710938 700 l 257
 122.908203125 -182 l 257
 -2.091796875 -182 l 257
 153.428710938 700 l 257
EndSplineSet
EndChar

StartChar: three
Encoding: 51 51 206
GlifName: three
Width: 484
VWidth: 0
GlyphClass: 2
Flags: HW
HStem: 0 122<255 257 255 255.5> 286 124<188 247> 574 124<156 256 156 252.5>
VStem: 327 131<181 231>
LayerCount: 2
Back
Fore
SplineSet
226.6875 537 m 257
 131.795898438 600 l 257
 174.670898438 656 240.076171875 698 318.076171875 698 c 257
 295.859375 572 l 257
 266.506835938 570 244.390625 558 226.6875 537 c 257
275.51171875 122 m 257
 318.51171875 122 355.388671875 161 362.44140625 201 c 256
 373.021484375 261 356.4296875 286 238.4296875 286 c 257
 260.293945312 410 l 257
 380.293945312 410 404.407226562 439 414.987304688 499 c 256
 424.508789062 553 387.211914062 574 357.211914062 574 c 256
 356.211914062 574 354.211914062 574 353.211914062 574 c 257
 375.076171875 698 l 257
 508.546875 695 555.622070312 582 542.57421875 508 c 256
 525.470703125 411 486.536132812 366 452.71484375 350 c 257
 477.364257812 331 508.077148438 284 493.088867188 199 c 256
 471.224609375 75 337 0 257 0 c 256
 256 0 256 0 255 0 c 257
 275.51171875 122 l 257
160.211914062 160 m 257
 170.509765625 139 188.393554688 127 217.041015625 125 c 257
 194.823242188 -1 l 257
 116.823242188 -1 65.2900390625 30 43.103515625 97 c 257
 160.211914062 160 l 257
EndSplineSet
EndChar

StartChar: threequarters
Encoding: 190 190 207
GlifName: threequarters
Width: 584
VWidth: 0
GlyphClass: 2
Flags: HW
HStem: -1 21<417 485 417 417> -1 21<417 485 417 417> 71 66<370 392 294 294 485 512> 348 66<93.5 114 113 114 113 141 113 144> 492 65<108 109 109 137.5> 636 64<94 141 94 143 94 140>
VStem: 177 68<440.5 464.5> 294 98<71 137 71 137> 417 95<71 137 71 352> 417 68<-1 71 -1 137 137 352>
LayerCount: 2
Back
Fore
SplineSet
158.997070312 431 m 258
 164.233398438 421 172.17578125 415 185.999023438 414 c 258
 186.999023438 414 l 257
 175.361328125 348 l 257
 174.361328125 348 l 258
 135.361328125 348 108.182617188 364 97.177734375 398 c 257
 96.3544921875 399 l 257
 158.172851562 432 l 257
 158.997070312 431 l 258
214.646484375 412 m 258
 235.646484375 412 252.997070312 431 256.346679688 450 c 256
 261.4609375 479 253.752929688 492 194.752929688 492 c 257
 206.213867188 557 l 257
 207.213867188 557 l 258
 267.213867188 557 277.682617188 571 282.795898438 600 c 256
 287.380859375 626 269.143554688 636 255.143554688 636 c 258
 252.143554688 636 l 257
 263.60546875 701 l 257
 264.428710938 700 l 257
 332.076171875 698 356.202148438 642 349.501953125 604 c 256
 341.213867188 557 323.158203125 534 306.571289062 525 c 257
 319.631835938 514 331.576171875 491 324.346679688 450 c 256
 313.23828125 387 246.361328125 348 205.361328125 348 c 258
 202.361328125 348 l 257
 213.646484375 412 l 257
 214.646484375 412 l 258
190.6171875 616 m 257
 140.436523438 649 l 257
 141.7890625 651 l 258
 163.725585938 679 197.428710938 700 237.428710938 700 c 257
 225.967773438 635 l 257
 224.967773438 635 l 258
 210.791015625 634 200.733398438 628 191.969726562 618 c 258
 190.6171875 616 l 257
536.157226562 137 m 257
 524.51953125 71 l 257
 497.51953125 71 l 257
 484.823242188 -1 l 257
 416.823242188 -1 l 257
 479.067382812 352 l 257
 547.067382812 352 l 257
 509.157226562 137 l 257
 536.157226562 137 l 257
416.157226562 137 m 257
 404.51953125 71 l 257
 306.51953125 71 l 257
 318.157226562 137 l 257
 445.779296875 305 l 257
 422.857421875 175 l 257
 394.157226562 137 l 257
 416.157226562 137 l 257
49.6474609375 -2 m 257
 605.78125 702 l 257
 681.78125 702 l 257
 132.647460938 -2 l 257
 49.6474609375 -2 l 257
EndSplineSet
EndChar

StartChar: tilde
Encoding: 294 732 208
GlifName: tilde
Width: 333
VWidth: 0
GlyphClass: 2
Flags: HW
HStem: 86 101<201.5 234.5> 126 102<86.5 116>
VStem: 26 281<114 114 114 206 206 206>
LayerCount: 2
Back
Fore
SplineSet
327.1015625 114 m 257
 289.3984375 93 261.1640625 86 238.1640625 86 c 256
 185.1640625 86 162.216796875 126 114.216796875 126 c 256
 96.216796875 126 73.1591796875 120 44.337890625 104 c 257
 62.3232421875 206 l 257
 93.14453125 222 117.202148438 228 136.202148438 228 c 256
 187.202148438 228 208.973632812 187 259.973632812 187 c 256
 281.973632812 187 308.383789062 195 344.91015625 215 c 257
 327.1015625 114 l 257
EndSplineSet
EndChar

StartChar: two
Encoding: 50 50 209
GlifName: two
Width: 480
VWidth: 0
GlyphClass: 2
Flags: HW
HStem: 0 127<43 447 43 447> 574 126<245 252>
VStem: 330 123<495 497 496.5 497 442 522>
LayerCount: 2
Back
Fore
SplineSet
469.393554688 127 m 257
 447 0 l 257
 43 0 l 257
 65.3935546875 127 l 257
 469.393554688 127 l 257
313.252929688 699 m 257
 291.03515625 573 l 258
 290.03515625 573 240.213867188 557 229.282226562 495 c 257
 115.690429688 520 l 257
 139.501953125 604 216.13671875 687 313.252929688 699 c 257
346.211914062 574 m 257
 368.428710938 700 l 257
 370.428710938 700 373.428710938 700 375.428710938 700 c 256
 529.428710938 700 553.211914062 574 540.634765625 497 c 256
 540.458007812 496 540.282226562 495 540.10546875 494 c 256
 521.767578125 390 466.125 358 397.54296875 315 c 256
 317.7265625 265 271.908203125 232 228.5625 179 c 257
 76.5625 179 l 257
 158.250976562 302 268.301757812 359 302.709960938 384 c 256
 352.233398438 421 405.349609375 433 417.282226562 495 c 256
 417.458007812 496 417.458007812 496 417.634765625 497 c 256
 426.451171875 547 400.859375 572 346.211914062 574 c 257
EndSplineSet
EndChar

StartChar: u
Encoding: 117 117 210
GlifName: u
Width: 434
VWidth: 0
GlyphClass: 2
Flags: HW
HStem: -5 121<137.5 196 191 196 238 243 191 238> 494 20<30 154 154 154 280 404 404 404>
VStem: 30 124<140.5 142 142 514> 280 124<142 514>
LayerCount: 2
Back
Fore
SplineSet
258.454101562 116 m 257
 263.454101562 116 l 258
 294.454101562 116 304.685546875 140 305.038085938 142 c 257
 370.631835938 514 l 257
 494.631835938 514 l 257
 428.157226562 137 l 258
 420.221679688 92 349.118164062 -5 242.118164062 -5 c 258
 237.118164062 -5 l 257
 258.454101562 116 l 257
120.631835938 514 m 257
 244.631835938 514 l 257
 179.038085938 142 l 257
 178.509765625 139 180.454101562 116 211.454101562 116 c 258
 216.454101562 116 l 257
 195.118164062 -5 l 257
 190.118164062 -5 l 258
 83.1181640625 -5 45.693359375 89 54.1572265625 137 c 258
 120.631835938 514 l 257
EndSplineSet
EndChar

StartChar: underscore
Encoding: 95 95 215
GlifName: underscore
Width: 510
VWidth: 0
GlyphClass: 2
Flags: HW
HStem: -205 107<30 480 30 480>
LayerCount: 2
Back
Fore
SplineSet
443.852539062 -205 m 257
 -6.1474609375 -205 l 257
 12.7197265625 -98 l 257
 462.719726562 -98 l 257
 443.852539062 -205 l 257
EndSplineSet
EndChar

StartChar: uni00B2
Encoding: 178 178 218
GlifName: uni00B_2
Width: 245
VWidth: 0
GlyphClass: 2
Flags: HW
LayerCount: 2
Back
Fore
SplineSet
214.497070312 638 m 258
 210.143554688 636 195.91015625 629 192.20703125 608 c 258
 191.501953125 604 l 257
 134.6171875 616 l 257
 135.146484375 619 l 257
 145.846679688 657 180.546875 695 224.428710938 700 c 257
 228.428710938 700 l 257
 218.73046875 645 l 257
 217.497070312 638 l 257
 214.497070312 638 l 258
295.5234375 451 m 257
 284.590820312 389 l 257
 102.590820312 389 l 257
 113.5234375 451 l 257
 295.5234375 451 l 257
234.672851562 639 m 257
 245.428710938 700 l 257
 252.428710938 700 l 258
 321.428710938 700 332.377929688 643 326.3828125 609 c 256
 317.743164062 560 292.274414062 546 262.924804688 527 c 256
 228.044921875 505 209.9296875 493 192.049804688 471 c 258
 190.697265625 469 l 257
 116.697265625 469 l 257
 120.754882812 475 l 258
 156.27734375 529 204.508789062 553 218.272460938 563 c 256
 241.26953125 580 261.974609375 584 266.20703125 608 c 256
 269.91015625 629 260.497070312 638 237.672851562 639 c 258
 234.672851562 639 l 257
EndSplineSet
EndChar

StartChar: uni00B3
Encoding: 179 179 219
GlifName: uni00B_3
Width: 247
VWidth: 0
GlyphClass: 2
Flags: HW
HStem: 392 60<86.5 129 104 129 126 129 126 129 129 131> 516 61<97 101 97 101> 640 61<104 107 104 107 125 128 104 130 104 125>
VStem: 157 64<475 495>
LayerCount: 2
Back
Fore
SplineSet
162.344726562 467 m 258
 165.934570312 459 172.228515625 455 184.052734375 454 c 258
 186.875976562 453 l 257
 176.120117188 392 l 257
 173.120117188 392 l 258
 138.120117188 392 114.588867188 406 104.87890625 436 c 257
 103.407226562 439 l 257
 160.874023438 470 l 257
 162.344726562 467 l 258
208.700195312 452 m 258
 224.700195312 452 239.344726562 467 242.166015625 483 c 256
 246.397460938 507 241.984375 516 191.984375 516 c 258
 187.984375 516 l 257
 198.740234375 577 l 257
 202.740234375 577 l 258
 253.740234375 577 260.680664062 588 264.912109375 612 c 256
 268.615234375 633 253.849609375 640 242.849609375 640 c 258
 237.849609375 640 l 257
 248.60546875 701 l 257
 251.60546875 701 l 258
 311.428710938 700 333.612304688 650 327.6171875 616 c 256
 320.916992188 578 306.213867188 557 291.451171875 547 c 257
 301.6875 537 311.984375 516 305.989257812 482 c 256
 296.115234375 426 236.120117188 392 200.120117188 392 c 258
 195.120117188 392 l 257
 205.700195312 452 l 257
 208.700195312 452 l 258
187.8515625 623 m 257
 141.317382812 654 l 257
 143.846679688 657 l 258
 163.254882812 682 192.60546875 701 227.60546875 701 c 258
 230.60546875 701 l 257
 219.849609375 640 l 257
 216.849609375 640 l 258
 204.672851562 639 196.791015625 634 190.380859375 626 c 258
 187.8515625 623 l 257
EndSplineSet
EndChar

StartChar: uni00B9
Encoding: 185 185 220
GlifName: uni00B_9
Width: 186
VWidth: 0
GlyphClass: 2
Flags: HW
HStem: 391 309<95 161 95 161 93 161>
VStem: 60 101<584 673 673 673> 93 68<391 610 610 610>
LayerCount: 2
Back
Fore
SplineSet
200.559570312 610 m 257
 162.974609375 584 l 257
 178.66796875 673 l 257
 218.428710938 700 l 257
 284.428710938 700 l 257
 229.944335938 391 l 257
 161.944335938 391 l 257
 200.559570312 610 l 257
EndSplineSet
EndChar

StartChar: v
Encoding: 118 118 221
GlifName: v
Width: 400
VWidth: 0
GlyphClass: 2
Flags: HW
HStem: 0 21<174 174 174 243> 0 21<174 174 174 243> 496 20<151 151 269 269>
LayerCount: 2
Back
Fore
SplineSet
174 0 m 257
 106.80859375 515 l 257
 241.984375 516 l 257
 307.159179688 120 l 257
 243 0 l 257
 174 0 l 257
359.984375 516 m 257
 490.80859375 515 l 257
 344.67578125 208 l 257
 332.67578125 208 l 257
 301.47265625 394 l 257
 359.984375 516 l 257
EndSplineSet
EndChar

StartChar: w
Encoding: 119 119 222
GlifName: w
Width: 577
VWidth: 0
GlyphClass: 2
Flags: HW
HStem: 0 21<160 160 160 222 348 412 348 348> 0 21<160 160 160 222 348 412 348 348> 496 20<144 144 328 328 443 443>
LayerCount: 2
Back
Fore
SplineSet
160 0 m 257xa0
 98.80859375 515 l 257
 234.984375 516 l 257
 282.159179688 120 l 257
 222 0 l 257
 160 0 l 257xa0
348 0 m 257
 280.80859375 515 l 257
 418.984375 516 l 257
 470.159179688 120 l 257
 412 0 l 257
 348 0 l 257
533.984375 516 m 257
 659.80859375 515 l 257
 507.67578125 208 l 257
 499.67578125 208 l 257
 476.47265625 394 l 257
 533.984375 516 l 257
EndSplineSet
EndChar

StartChar: x
Encoding: 120 120 223
GlifName: x
Width: 381
VWidth: 0
GlyphClass: 2
Flags: HW
HStem: 0 21<18 143 18 18 257 382 257 257> 0 21<18 143 18 18 257 382 257 257> 496 19
LayerCount: 2
Back
Fore
SplineSet
178.197265625 262 m 257xa0
 112.984375 516 l 257
 237.984375 516 l 257
 270.354492188 399 l 257
 342.80859375 515 l 257
 468.80859375 515 l 257
 315.197265625 262 l 257
 382 0 l 257
 257 0 l 257
 222.216796875 126 l 257
 143 0 l 257
 18 0 l 257
 178.197265625 262 l 257xa0
EndSplineSet
EndChar

StartChar: y
Encoding: 121 121 224
GlifName: y
Width: 383
VWidth: 0
GlyphClass: 2
Flags: HW
HStem: 495 20<131 131 251 251>
VStem: 188 1
LayerCount: 2
Back
Fore
SplineSet
137.924804688 113 m 257
 90.6318359375 514 l 257
 221.80859375 515 l 257
 245.659179688 327 l 257
 245.834960938 328 246.834960938 328 247.01171875 329 c 257
 271.572265625 111 l 257
 122.908203125 -182 l 257
 -3.091796875 -182 l 257
 137.924804688 113 l 257
341.80859375 515 m 257
 472.631835938 514 l 257
 315.67578125 208 l 257
 303.67578125 208 l 257
 282.296875 393 l 257
 341.80859375 515 l 257
EndSplineSet
EndChar

StartChar: yen
Encoding: 165 165 227
GlifName: yen
Width: 542
VWidth: 0
GlyphClass: 2
Flags: HW
HStem: 0 21<203 340 203 203> 0 21<203 340 203 203> 238 57<50 193 50 203 50 193> 351 58<50 162 50 177 50 162> 678 20<73 210 210 210 333 470 470 470>
VStem: 203 137<0 236 0 238 0 238>
LayerCount: 2
Back
Fore
SplineSet
196.076171875 698 m 257
 333.076171875 698 l 257
 358.518554688 485 l 257
 456.076171875 698 l 257
 593.076171875 698 l 257
 453.94140625 408 l 257
 563.94140625 408 l 257
 553.71484375 350 l 257
 426.71484375 350 l 257
 403.016601562 295 l 257
 544.016601562 295 l 257
 533.61328125 236 l 257
 381.61328125 236 l 257
 340 0 l 257
 203 0 l 257
 244.965820312 238 l 257
 91.9658203125 238 l 257
 102.016601562 295 l 257
 245.016601562 295 l 257
 238.890625 351 l 257
 111.890625 351 l 257
 122.118164062 409 l 257
 234.118164062 409 l 257
 196.076171875 698 l 257
EndSplineSet
EndChar

StartChar: z
Encoding: 122 122 228
GlifName: z
Width: 348
VWidth: 0
GlyphClass: 2
Flags: HW
HStem: 0 118<169 169 169 322> 394 120<26 183 26 322>
VStem: 26 296<0 116 116 116 400 514>
LayerCount: 2
Back
Fore
SplineSet
392.53125 400 m 257
 189.806640625 118 l 257
 342.629882812 117 l 257
 322 0 l 257
 26 0 l 257
 46.4541015625 116 l 257
 252.47265625 394 l 257
 95.47265625 394 l 257
 116.631835938 514 l 257
 412.631835938 514 l 257
 392.53125 400 l 257
EndSplineSet
EndChar

StartChar: zero
Encoding: 48 48 230
GlifName: zero
Width: 1024
VWidth: 0
GlyphClass: 2
Flags: HW
LayerCount: 2
Back
Fore
SplineSet
527.076171875 698 m 257
 505.03515625 573 l 257
 449.743164062 560 427.287109375 461 416.177734375 398 c 256
 411.416992188 371 409.477539062 360 405.774414062 339 c 256
 389.729492188 248 372.157226562 137 424.864257812 124 c 257
 403 0 l 257
 337.529296875 3 231.580078125 60 283.243164062 353 c 256
 327.1484375 602 437.194335938 693 527.076171875 698 c 257
587.076171875 698 m 257
 675.194335938 693 753.1484375 602 709.243164062 353 c 256
 657.580078125 60 531.529296875 3 465 0 c 257
 486.864257812 124 l 257
 544.157226562 137 565.729492188 248 581.774414062 339 c 256
 585.477539062 360 587.416992188 371 592.177734375 398 c 256
 603.287109375 461 615.743164062 560 565.03515625 573 c 257
 587.076171875 698 l 257
EndSplineSet
EndChar
